<svg xmlns="http://www.w3.org/2000/svg" width="252" height="50" viewBox="0 0 252 50"><path fill="#4285f4" d="M225.27 3.2c2.48-1.76 5.4-4.03 8.64-2.8 3.85 1.9 7.1 4.77 10.7 7.08 3 2.17 7.02 4.04 7.4 8.25v24c-11 .28-22.04-.05-33.05.15-2-.1-3.86 1.15-4.44 3.1-.38 2.52 1.98 4.7 4.43 4.42l32.85.02-.05 2.58H217.8c-2.94-.4-5.86-2.73-5.7-5.9l-.07-26.12c.01-2.38-.17-5.28 2.05-6.8 3.57-2.86 7.5-5.22 11.17-7.95m-.43 19.65l5.9.27.01-6.27c-1.73-.01-3.47-.03-5.2.06-1.47 1.5-.4 4.03-.73 5.94m8 0c1.98.12 3.97.2 5.96.27l.01-6.27c-1.76-.01-3.52-.04-5.27.06-1.4 1.54-.38 4.03-.7 5.94m-7.96 1.94l-.01 6 5.88.1.03-6.1-5.9.02m8 0v6l5.93.07.02-6.1-5.94.02z"/><path d="M82.77 7.06l3.14.14-.15 3.2c-.75 0-2.25-.02-3-.02v-3.3zm6.7.06l3.34.04-.1 3.23-3.22-.05V7.12zm48.3.12l3.56-.1-.05 3.24-3.45-.07-.06-3.06zm7-.14l3.43.14-.03 3.05-3.4.06-.01-3.25zm-40.27.57h3.26l-.01 28.62H7.96C3.93 36.58.3 33.46 0 29.43v-1.17l3.06-.05c.78 1.56 1 4.1 3.12 4.42 6.27.52 12.58.05 18.86.22 3.12-.1 6.35.38 9.4-.43 2.6-1.5 1.98-4.9 2.15-7.42-.1-2.65.48-6.7-2.78-7.65-6-.6-12.07-.07-18.1-.23v12.7c-1.1 0-2.18-.01-3.27-.01l.03-16.1c6.9.12 13.8-.2 20.7.12 3.07.12 5.97 2.4 6.24 5.56.48 4.47.22 9-.25 13.46H61c1.8-.13 4.18.27 5.33-1.52 1.4-2.92.97-6.33.88-9.47-.05-1.97-.92-4.56-3.27-4.63-5.8-.4-11.65.01-17.47-.18l-.01 12.72-3.25.07.02-16.13 19.87.05c3.1-.04 6.38 1.93 6.94 5.16.7 4.62.48 9.38-.42 13.96l4.13-.08c.34-5.2-1.03-10.78 1.13-15.7 2.73-4.53 8.7-3.2 13.1-3.43 4.2.08 9.96-.8 12.24 3.75 1.67 4.95.72 10.28.93 15.4l3.34.01V7.67m-27.2 12.4c-.3 4.25-.03 8.5-.1 12.76l20.6-.01c-.08-4.2.2-8.4-.13-12.58-.16-1.75-1.87-3.13-3.6-3.08-4.37-.13-8.75-.12-13.12-.02-1.64.02-3.5 1.18-3.64 2.93zm34.2 16.27l-.03-28.7 3.13.04-.03 28.65-3.07.02zm18.2-20.62c-.62-2 1.8-2.03 3.02-2.28.93 5.43.06 10.96.54 16.43.15 1.78 1.93 3.07 3.66 2.94 5.6.12 11.2-.02 16.8.03-.05-6.17.13-12.34-.13-18.5l3.17-.82c.14 6.42.04 12.85.06 19.28h17.53l.06-19.12 2.98.08v19.1l17.26-.01.02-19.17 2.9.12c.43 7.48.07 15 .17 22.5h-59.8c-3.8.32-7.8-2.26-8.1-6.27-.34-4.76-.1-9.54-.17-14.3zm47.9 23.92h3.03l.1 3.3-3.22.02.08-3.32zm17 .02l3.13-.02.1 3.32-3.36-.07.12-3.23zm-23.86 0l3.06-.01.1 3.3-3.22-.02.05-3.26z" fill="#5e6267"/></svg>
