<svg xmlns="http://www.w3.org/2000/svg" width="252" height="50" viewBox="0 0 252 50"><path fill="#4285f4" d="M217.54 8.6c4.25-2.66 8-6.1 12.55-8.27 4.57-1.23 7.94 2.94 11.5 5.06 3.67 3.07 9.32 4.8 10.42 10.02v24.33c-11.03.3-22.07-.06-33.1.16-2.2-.16-4.67 1.7-4.34 4.06.1 2.18 2.34 3.6 4.4 3.44l32.87.02-.1 2.58h-34c-2.88-.47-5.76-2.74-5.6-5.9l.04-29.16c.02-3.16 3.18-4.7 5.38-6.34m7.3 8.56l.04 5.7 5.85.26.06-6.24c-2-.04-3.98.03-5.95.27m8 5.72l5.95.24.02-6.26c-1.77-.01-3.53-.03-5.3.05-1.33 1.6-.37 4.04-.68 5.97m-7.96 1.92l-.01 6 5.88.1.03-6.1h-5.9m8 0v6l5.93.07.02-6.1-5.94.02z"/><path opacity=".98" d="M82.78 6.9l3.85.7c-.4 2.15-1.6 3.37-3.87 2.9l.02-3.58zm6.72.18l3.3.1v3.16l-3.3.04.02-3.3zm48.33.38a31.26 31.26 0 0 1 3.48-.46l-.03 3.36-3.56-.05.1-2.85zm6.93-.36l3.43.13-.02 3.08-3.4.05-.01-3.26zm-40.26.56l3.27.01-.01 28.62c-32.6.05-65.2-.04-97.8.05C5.44 37.04.34 34.5 0 29.5v-1.24l3.06-.05c.76 1.84 1.35 4.74 3.94 4.53a608.61 608.61 0 0 0 25.99.01c3.86-.2 3.6-4.92 3.6-7.72-.12-2.65.46-6.7-2.8-7.67-6-.6-12.06-.07-18.08-.23v12.72l-3.27-.01.03-16.1c6.88.13 13.77-.17 20.65.1 3.07.12 6 2.4 6.28 5.55.5 4.48.22 9.02-.25 13.5 8.25-.18 16.5.2 24.76-.15 3.68-.4 3.33-5.05 3.42-7.78-.07-2.72.25-7.28-3.4-7.7-5.8-.38-11.63.02-17.44-.17l-.01 12.74-3.26.05.02-16.13 19.83.04c3.16-.06 6.5 1.95 7 5.25.7 4.6.45 9.33-.43 13.9l4.12-.1c.25-4.98-.78-10.17.77-15 2.1-4.9 8.1-4.1 12.44-4.13 4.5.2 10.75-1.13 13.28 3.75 1.65 4.86.9 10.12.54 15.13l3.7.38V7.66m-27.2 12.4c-.3 4.25-.02 8.52-.1 12.78l20.6-.01c-.05-3.96.13-7.92-.06-11.87.1-2-1.65-3.86-3.66-3.8-4.36-.13-8.73-.12-13.1-.02-1.65 0-3.52 1.16-3.7 2.9zm34.22 16.28l-.03-28.72 3.13.04-.03 28.67-3.07.01zm18.22-22.7l3.02.6c1.05 5.1-.1 10.5.52 15.72.24 1.74 2 2.98 3.73 2.83 5.57.12 11.14-.02 16.72.03-.06-6.16.13-12.32-.13-18.48l3.18-.84c.14 6.42.03 12.85.07 19.27l17.45.07c.14-6.4-.06-12.8.12-19.2l2.98.1v19.08h17.26l.01-19.16 2.86.08c.6 7.5.1 15.03.24 22.54H138c-3.8.35-7.85-2.26-8.14-6.26-.36-5.46-.05-10.93-.13-16.4zm47.87 25.98h3.03l.14 3.32c-1.1-.01-2.2-.01-3.3 0l.12-3.32zm16.98.04l3.12-.03.15 3.32-3.42-.07.15-3.22zm-23.88-.1c2.68-.75 3.48.96 3.58 3.28l-3.62.12.04-3.4z" fill="#5d6166"/></svg>