<?xml version="1.0" standalone="no"?>
<!DOCTYPE svg PUBLIC "-//W3C//DTD SVG 1.1//EN" "http://www.w3.org/Graphics/SVG/1.1/DTD/svg11.dtd">
<svg xmlns="http://www.w3.org/2000/svg">
<metadata>codatey © 2019</metadata>
<defs>
<font id="icons" horiz-adv-x="1000" >
<font-face font-family="icons" font-weight="400" font-stretch="normal" units-per-em="1000" ascent="850" descent="-150" />
<missing-glyph horiz-adv-x="1000" />
<glyph glyph-name="grin-tears" unicode="&#xe800;" d="M229 350c-51-7-164-27-197-60-43-43-42-113 1-157s114-44 157-2c33 34 53 147 60 198 2 12-9 23-21 21z m989-60c-33 33-146 53-197 60-12 2-23-9-21-21 7-51 27-164 60-197 43-43 113-42 157 1 43 44 44 114 1 157z m-247-120c-65-125-196-211-346-211-150 0-281 86-346 211-24-73-49-86-55-91 87-129 234-213 401-213s314 84 401 213c-6 5-31 18-55 91z m-731 242c29 186 191 329 385 329 194 0 356-143 385-329 5 0 11 4 97-14-24 245-231 436-482 436s-458-191-482-436c87 18 92 14 97 14z m385-343c101 0 225 64 241 156 3 19-15 36-35 30-50-16-125-26-206-26s-155 10-206 26c-19 6-38-10-35-30 16-92 140-156 241-156z m255 329c7 2 11 8 11 16-7 82-63 139-110 139s-103-57-109-139c-1-8 4-14 11-16 7-3 15 0 18 7l19 33c15 27 37 42 61 42s47-15 62-42l18-33c4-7 12-9 19-7z m-411 82c24 0 46-15 61-42l19-33c4-7 12-9 18-7 7 2 12 8 11 16-6 82-63 139-109 139s-103-57-110-139c0-8 5-14 12-16 6-3 14 0 18 7l18 33c15 27 38 42 62 42z" horiz-adv-x="1250" />

<glyph glyph-name="grin-tongue" unicode="&#xe801;" d="M484 834c-267 0-484-216-484-484s217-484 484-484 485 216 485 484-217 484-485 484z m125-781c0-69-56-126-126-125-69 1-124 58-124 127v84l35 17c29 15 62-3 68-32l6-24c4-18 29-18 33 0l6 24c7 29 39 47 68 32l35-17v-86z m56-49c4 16 7 32 7 49v85c28 24 48 54 53 87 4 19-15 36-34 30-51-16-126-26-207-26s-155 10-206 26c-19 6-38-10-34-30 5-33 25-63 53-87v-85c0-17 3-33 7-49-125 65-210 196-210 346 0 215 175 391 390 391s391-176 391-391c0-150-85-281-210-346z m-337 502c-34 0-62-28-62-62s28-63 62-63 63 28 63 63-28 62-63 62z m313 0c-35 0-63-28-63-62s28-63 63-63 62 28 62 63-28 62-62 62z" horiz-adv-x="969" />

<glyph glyph-name="grin-tongue-squint" unicode="&#xe802;" d="M484 834c-267 0-484-216-484-484s217-484 484-484 485 216 485 484-217 484-485 484z m125-781c0-69-56-126-126-125-69 1-124 58-124 127v84l35 17c29 15 62-3 68-32l6-24c4-18 29-18 33 0l6 24c7 29 39 47 68 32l35-17v-86z m56-49c4 16 7 32 7 49v85c28 24 48 54 53 87 4 19-15 36-34 30-51-16-126-26-207-26s-155 10-206 26c-19 6-38-10-34-30 5-33 25-63 53-87v-85c0-17 3-33 7-49-125 65-210 196-210 346 0 215 175 391 390 391s391-176 391-391c0-150-85-281-210-346z m72 549c-8 8-21 11-30 5l-157-94c-7-4-11-12-11-20s4-16 11-20l157-94c10-6 23-3 30 5 7 9 7 21 0 30l-66 79 66 79c7 8 7 21 0 30z m-319-89l-156 94c-10 6-22 4-30-5-7-9-7-22 0-30l66-79-66-79c-7-9-7-21 0-30 7-8 20-11 30-5l156 94c7 4 12 12 12 20s-5 16-12 20z" horiz-adv-x="969" />

<glyph glyph-name="grin-tongue-wink" unicode="&#xe803;" d="M297 498c-50 0-109-33-117-82-1-10 3-19 12-24 9-5 19-3 27 3l18 17c29 26 91 26 119 0l19-17c5-4 16-9 27-3 8 5 13 14 12 24-8 49-67 82-117 82z m344 102c-87 0-157-70-157-156s70-156 157-156 156 69 156 156-70 156-156 156z m0-250c-52 0-94 42-94 94s42 94 94 94 93-42 93-94-42-94-93-94z m0 141c-26 0-47-21-47-47s21-47 47-47 47 21 47 47-21 47-47 47z m-157 343c-267 0-484-216-484-484s217-484 484-484 485 216 485 484-217 484-485 484z m125-781c0-69-56-126-126-125-69 1-124 58-124 127v84l35 17c29 15 62-3 68-32l6-24c4-18 29-18 33 0l6 24c7 29 39 47 68 32l35-17v-86z m56-49c4 16 7 32 7 49v85c28 24 48 54 53 87 4 19-15 36-34 30-51-16-126-26-207-26s-155 10-206 26c-19 6-38-10-34-30 5-33 25-63 53-87v-85c0-17 3-33 7-49-125 65-210 196-210 346 0 215 175 391 390 391s391-176 391-391c0-150-85-281-210-346z" horiz-adv-x="969" />

<glyph glyph-name="grin-wink" unicode="&#xe804;" d="M641 498c-51 0-109-33-117-82-4-22 22-35 38-21l19 17c29 25 90 25 119 0l19-17c16-14 42 0 39 21-8 49-67 82-117 82z m-313-117c35 0 63 28 63 63s-28 62-63 62-62-28-62-62 28-63 62-63z m363-126c-51-16-126-25-207-25s-155 9-206 25c-19 6-38-10-34-30 15-92 139-156 240-156s226 64 241 156c3 19-15 36-34 30z m-207 579c-267 0-484-216-484-484s217-484 484-484 485 217 485 484-217 484-485 484z m0-875c-215 0-390 176-390 391s175 391 390 391 391-176 391-391-175-391-391-391z" horiz-adv-x="969" />

<glyph glyph-name="grip-horizontal" unicode="&#xe805;" d="M953 663h-187c-26 0-47-21-47-47v-188c0-26 21-47 47-47h187c26 0 47 21 47 47v188c0 26-21 47-47 47z m-47-188h-93v94h93v-94z m47-156h-187c-26 0-47-21-47-47v-188c0-25 21-46 47-46h187c26 0 47 21 47 46v188c0 26-21 47-47 47z m-47-188h-93v94h93v-94z m-672 532h-187c-26 0-47-21-47-47v-188c0-26 21-47 47-47h187c26 0 47 21 47 47v188c0 26-21 47-47 47z m-46-188h-94v94h94v-94z m46-156h-187c-26 0-47-21-47-47v-188c0-25 21-46 47-46h187c26 0 47 21 47 46v188c0 26-21 47-47 47z m-46-188h-94v94h94v-94z m406 532h-188c-26 0-47-21-47-47v-188c0-26 21-47 47-47h188c26 0 47 21 47 47v188c0 26-21 47-47 47z m-47-188h-94v94h94v-94z m47-156h-188c-26 0-47-21-47-47v-188c0-25 21-46 47-46h188c26 0 47 21 47 46v188c0 26-21 47-47 47z m-47-188h-94v94h94v-94z" horiz-adv-x="1000" />

<glyph glyph-name="hashtag" unicode="&#xe806;" d="M866 479l9 47c2 14-9 27-23 27h-174l37 207c2 14-9 28-23 28h-48a23 23 0 0 1-23-20l-39-215h-217l37 207c3 14-8 28-23 28h-48a23 23 0 0 1-23-20l-38-215h-182a23 23 0 0 1-23-19l-9-47c-2-14 9-28 23-28h174l-39-218h-182a23 23 0 0 1-23-20l-9-47c-2-14 9-27 23-27h174l-37-207c-2-14 9-28 24-28h47a23 23 0 0 1 23 20l39 215h217l-37-207c-3-14 8-28 23-28h48a23 23 0 0 1 23 20l38 215h182a23 23 0 0 1 24 19l8 47c2 14-9 28-23 28h-174l39 218h182a23 23 0 0 1 23 20z m-339-238h-218l39 218h218l-39-218z" horiz-adv-x="875" />

<glyph glyph-name="home" unicode="&#xe807;" d="M1088 380l-88 72v195c0 9-7 16-16 16h-62c-9 0-16-7-16-16v-118l-294 241c-29 23-70 23-99 0l-476-390c-7-6-8-15-2-22l39-49c6-6 16-7 23-2l28 24v-387c0-17 14-32 31-32h329c8 0 15 7 15 16v250h125v-250c0-9 7-16 16-16h328c17 0 31 15 31 32v387l29-24c7-5 17-4 22 3l40 48c5 7 4 16-3 22z m-182-374h-187v250c0 9-7 16-16 16h-281c-9 0-16-7-16-16v-250h-187v402l334 273c5 5 14 5 19 0l334-273v-402z" horiz-adv-x="1125" />

<glyph glyph-name="house-flood" unicode="&#xe808;" d="M74 372c6-7 16-8 23-2l28 23v-346c18 12 40 20 63 20 10 0 21-2 31-5v408l334 274c5 4 14 4 19 0l334-274v-57h0v-351c10 3 21 5 32 5 22 0 44-7 62-20v346l29-23c7-5 17-5 22 2l40 49c5 6 4 16-3 21l-88 73v194c0 9-7 16-16 16h-62c-9 0-16-7-16-16v-118l-294 241c-29 24-70 24-99 0l-476-390c-7-5-8-15-2-22l39-48z m1023-428c-49 5-96 23-130 50-17 14-42 14-59 0-40-33-98-52-158-52-59 0-118 20-158 52-17 14-42 14-59 0-40-33-98-52-158-52-59 0-118 20-158 52-17 14-42 14-59 0-34-27-80-45-129-50-16-2-29-14-29-30v-33c0-17 15-32 33-31 56 5 110 23 155 51 107-67 269-67 375 0 107-67 269-67 375 0 44-28 98-46 154-51 18-1 33 14 33 31v33c0 16-12 28-28 30z m-628 531c-17 0-31-14-31-31v-188c0-17 14-31 31-31h187c17 0 32 14 32 31v188c0 17-15 31-32 31h-187z" horiz-adv-x="1125" />

<glyph glyph-name="kiss" unicode="&#xe809;" d="M328 506c-34 0-62-28-62-62s28-63 62-63 63 28 63 63-28 62-63 62z m266-258c0 38-56 82-140 86-7 1-14-4-16-12-2-7 2-15 9-18l33-14c26-10 41-26 41-42s-15-31-40-42l-34-14c-11-4-11-24 0-29l33-14c26-10 41-26 41-42s-15-31-40-42l-34-14c-7-3-11-10-9-18 2-7 8-12 15-12h1c84 5 140 49 140 86 0 25-26 53-69 70 43 18 69 46 69 71z m-110 586c-267 0-484-216-484-484s217-484 484-484 485 216 485 484-217 484-485 484z m0-875c-215 0-390 176-390 391s175 391 390 391 391-176 391-391-175-391-391-391z m157 547c-35 0-63-28-63-62s28-63 63-63 62 28 62 63-28 62-62 62z" horiz-adv-x="969" />

<glyph glyph-name="kiss-beam" unicode="&#xe80a;" d="M328 553c-46 0-103-57-109-139-1-8 4-14 11-16 7-2 14 0 18 7l18 33c15 27 38 42 62 42s46-15 62-42l18-33c4-7 12-9 18-7 7 2 12 8 11 16-6 82-62 139-109 139z m156 281c-267 0-484-216-484-484s217-484 484-484 485 216 485 484-217 484-485 484z m0-875c-215 0-390 176-390 391s175 391 390 391 391-176 391-391-175-391-391-391z m110 289c0 38-56 82-140 86-7 1-14-4-16-12-2-7 2-15 9-18l33-14c26-10 41-26 41-42s-15-31-40-42l-34-14c-11-4-11-24 0-29l33-14c26-10 41-26 41-42s-15-31-40-42l-34-14c-7-3-11-10-9-18 2-7 8-12 15-12h1c84 5 140 49 140 86 0 25-26 53-69 70 43 18 69 46 69 71z m47 305c-47 0-103-57-110-139 0-8 4-14 11-16 7-2 15 0 18 7l19 33c15 27 37 42 61 42s47-15 62-42l19-33c4-7 12-9 18-7 7 2 11 8 11 16-6 82-63 139-109 139z" horiz-adv-x="969" />

<glyph glyph-name="kiss-wink-heart" unicode="&#xe80b;" d="M594 248c0 37-56 81-140 85-7 1-14-4-16-12-2-7 2-15 9-18l33-14c26-10 41-26 41-42s-15-31-40-42l-34-14c-11-4-11-24 0-29l33-14c26-10 41-26 41-42s-15-31-40-42l-34-14c-7-3-11-10-9-18 2-7 8-12 15-12h1c84 5 140 49 140 86 0 25-26 53-69 70 43 18 69 46 69 72z m137 163l19-17c7-6 18-8 27-3 8 5 13 14 12 24-8 49-67 82-117 82s-109-33-117-82c-1-10 3-19 12-24 11-6 22-1 27 3l18 17c29 25 91 25 119 0z m-465 32c0-35 28-63 62-63s63 28 63 63-28 62-63 62-62-28-62-62z m713-379c-16 41-62 61-104 51l-16-5-5 17c-11 41-53 71-96 64-49-8-79-56-66-103l45-161c3-10 13-17 24-14l162 42c47 12 74 62 56 109z m-327-66c-51-25-107-39-168-39-215 0-390 176-390 391s175 391 390 391 391-176 391-391c0-43-7-85-20-123 17-13 33-28 44-47 12 0 24-3 36-6 21 55 34 114 34 176 0 268-217 484-485 484s-484-216-484-484 217-484 484-484c70 0 135 14 195 40-5 15 8-33-27 92z" horiz-adv-x="984" />

<glyph glyph-name="laugh" unicode="&#xe80c;" d="M484 834c-267 0-484-216-484-484s217-484 484-484 485 216 485 484-217 484-485 484z m277-760c-74-74-172-115-277-115s-202 41-276 115-114 172-114 276 40 202 114 276 172 115 276 115 203-41 277-115 114-172 114-276-41-202-114-276z m-120 339c34 0 62 27 62 62s-28 63-62 63-63-28-63-63 28-62 63-62z m-313 0c35 0 63 27 63 62s-28 63-63 63-62-28-62-63 28-62 62-62z m380-125h-447c-16 0-28-14-26-30 14-115 115-205 236-205h27c121 0 222 90 236 205 2 16-10 30-26 30z" horiz-adv-x="969" />

<glyph glyph-name="laugh-beam" unicode="&#xe80d;" d="M484 834c-267 0-484-216-484-484s217-484 484-484 485 216 485 484-217 484-485 484z m277-760c-74-74-172-115-277-115s-202 41-276 115-114 172-114 276 40 202 114 276 172 115 276 115 203-41 277-115 114-172 114-276-41-202-114-276z m-120 479c-47 0-103-57-110-139-1-17 21-24 29-9l19 33c15 27 37 42 61 42s47-15 62-42l19-33c8-15 30-8 29 9-6 82-63 139-109 139z m-393-148l19 33c15 27 37 42 61 42s47-15 62-42l18-33c8-15 31-8 29 9-6 82-63 139-109 139s-103-57-109-139c-2-17 21-24 29-9z m460-117h-447c-16 0-28-14-26-30 14-115 115-205 236-205h27c121 0 222 90 236 205 2 16-10 30-26 30z" horiz-adv-x="969" />

<glyph glyph-name="laugh-squint" unicode="&#xe80e;" d="M484 834c-267 0-484-216-484-484s217-484 484-484 485 216 485 484-217 484-485 484z m277-760c-74-74-172-115-277-115s-202 41-276 115-114 172-114 276 40 202 114 276 172 115 276 115 203-41 277-115 114-172 114-276-41-202-114-276z m-90 393l66 79c17 20-8 48-30 35l-157-94c-15-9-15-31 0-40l157-94c22-13 47 15 30 36l-66 78z m-409-114l156 94c16 9 16 31 0 40l-156 94c-22 14-47-15-30-35l66-79-66-78c-17-21 8-49 30-36z m446-65h-447c-16 0-28-14-26-30 14-115 115-205 236-205h27c121 0 222 90 236 205 2 16-10 30-26 30z" horiz-adv-x="969" />

<glyph glyph-name="laugh-wink" unicode="&#xe80f;" d="M484 834c-267 0-484-216-484-484s217-484 484-484 485 216 485 484-217 484-485 484z m277-760c-74-74-172-115-277-115s-202 41-276 115c-74 74-114 172-114 276s40 202 114 276c74 74 172 115 276 115s203-41 277-115c73-74 114-172 114-276s-41-202-114-276z m-120 456c-51 0-110-33-117-82-4-22 22-36 38-22l19 17c29 26 90 26 119 0l19-17c16-14 42 0 38 22-7 49-66 82-116 82z m-313-117c35 0 63 27 63 62s-28 63-63 63-62-28-62-63 28-62 62-62z m380-125h-447c-16 0-28-14-26-30 14-115 115-205 236-205h27c121 0 222 90 236 205 2 16-10 30-26 30z" horiz-adv-x="969" />

<glyph glyph-name="lightbulb" unicode="&#xe810;" d="M344 694c-104 0-188-84-188-188 0-17 14-31 32-31s31 14 31 31c0 69 56 125 125 125 17 0 31 14 31 32s-14 31-31 31z m-156-741c0-6 1-12 5-17l48-72c6-9 15-14 26-14h154c10 0 20 5 26 14l48 72c3 5 5 11 5 17l0 85h-312l0-85z m156 897c-200 0-344-162-344-344 0-86 32-165 85-226 33-37 84-115 103-180v0h93v0c0 10-1 19-4 28-11 35-45 126-121 214-40 46-62 104-62 164 0 144 116 250 250 250 138 0 250-112 250-250 0-60-22-119-62-164-76-87-110-179-121-214a93 93 0 0 1-5-28v0h94v0c19 65 70 143 102 180 53 61 86 140 86 226 0 190-154 344-344 344z" horiz-adv-x="688" />

<glyph glyph-name="lightbulb-dollar" unicode="&#xe811;" d="M328 272h31c9 0 16 7 16 16v31c46 1 83 40 83 88 0 39-25 74-61 85l-88 26c-10 3-17 13-17 25 0 14 10 26 23 26h55c9 0 17-3 25-7 6-4 14-4 19 1l23 22c7 6 7 18-1 24-17 13-39 21-61 22v32c0 8-7 15-16 15h-31c-8 0-15-7-15-15v-32c-47-1-84-40-84-88 0-39 26-74 62-85l88-26c10-3 17-13 17-25 0-14-10-26-23-26h-55c-9 0-18 3-25 8-6 4-14 3-20-2l-23-22c-7-6-6-18 1-23 18-14 39-22 62-23v-31c0-9 7-16 15-16z m-140-319c0-6 1-12 5-17l48-72c6-9 15-14 26-14h154c10 0 20 5 26 14l48 72c3 5 5 11 5 17l0 85h-312l0-85z m156 897c-200 0-344-162-344-344 0-86 32-165 85-226 33-37 84-115 103-180v0h93v0c0 10-1 19-4 28-11 35-45 126-121 214-40 46-62 104-62 164 0 144 116 250 250 250 138 0 250-112 250-250 0-60-22-119-62-164-76-87-110-179-121-214a93 93 0 0 1-5-28v0h94v0c19 65 70 143 102 180 53 61 86 140 86 226 0 190-154 344-344 344z" horiz-adv-x="688" />

<glyph glyph-name="lightbulb-exclamation" unicode="&#xe812;" d="M188-47c0-6 1-12 5-17l48-72c6-9 15-14 26-14h154c10 0 20 5 26 14l48 72c3 5 5 11 5 17l0 85h-312l0-85z m156 272c34 0 62 28 62 63s-28 62-62 62-63-28-63-62 28-63 63-63z m0 625c-200 0-344-162-344-344 0-86 32-165 85-226 33-37 84-115 103-180v0h93v0c0 10-1 19-4 28-11 35-45 126-121 214-40 46-62 104-62 164 0 144 116 250 250 250 138 0 250-112 250-250 0-60-22-119-62-164-76-87-110-179-121-214a93 93 0 0 1-5-28v0h94v0c19 65 70 143 102 180 53 61 86 140 86 226 0 190-154 344-344 344z m-19-437h37c16 0 30 12 31 28l25 187c2 19-12 35-31 35h-87c-18 0-33-16-31-35l25-187c2-16 15-28 31-28z" horiz-adv-x="688" />

<glyph glyph-name="lightbulb-on" unicode="&#xe813;" d="M87 219c-15-9-20-28-11-43l16-27c8-15 27-20 42-11l182 105a406 406 0 0 0-52 78l-177-102z m133 303h-189c-17 0-31-14-31-31v-32c0-17 14-31 31-31h196a411 411 0 0 0-7 94z m249-569c0-6 2-12 5-17l48-72c6-9 16-14 26-14h154c11 0 20 5 26 14l48 72c3 5 5 11 5 17l0 85h-312l0-85z m-382 778l155-89c10 30 25 58 42 84l-150 87c-15 8-34 3-42-12l-16-27c-9-15-4-34 11-43z m1076 0c15 9 20 28 11 43l-15 27c-9 15-28 20-43 12l-150-87c17-26 31-54 42-84l155 89z m0-512l-178 102c-14-27-31-54-51-78l182-105c15-9 34-4 43 11l15 27c9 15 4 34-11 43z m56 303h-189c1-5 1-10 1-16 0-26-3-52-8-78h196c17 0 31 14 31 31v32c0 17-14 31-31 31z m-594 172c-103 0-187-84-187-188 0-17 14-31 31-31s31 14 31 31c0 69 56 125 125 125 17 0 31 14 31 32s-14 31-31 31z m0 156c-200 0-344-162-344-344 0-86 32-165 85-226 33-37 84-115 103-180v0h94v0c-1 10-2 19-5 28-11 35-44 126-121 214-40 46-62 104-62 164 0 144 117 250 250 250 138 0 250-112 250-250 0-60-22-119-62-164-76-87-110-179-121-214a93 93 0 0 1-4-28v0h93v0c19 65 70 143 103 180 53 61 85 140 85 226 0 190-154 344-344 344z" horiz-adv-x="1250" />

<glyph glyph-name="list" unicode="&#xe814;" d="M977 608h-704c-12 0-23 10-23 23v63c0 13 11 23 23 23h704c13 0 23-10 23-23v-63c0-13-10-23-23-23z m23-289v62c0 13-10 24-23 24h-704c-12 0-23-11-23-24v-62c0-13 11-24 23-24h704c13 0 23 11 23 24z m0-313v63c0 13-10 23-23 23h-704c-12 0-23-10-23-23v-63c0-13 11-23 23-23h704c13 0 23 10 23 23z m-820 594v125c0 13-11 23-24 23h-125c-13 0-23-10-23-23v-125c0-13 10-23 23-23h125c13 0 24 10 24 23z m0-312v125c0 12-11 23-24 23h-125c-13 0-23-11-23-23v-125c0-13 10-24 23-24h125c13 0 24 11 24 24z m0-313v125c0 13-11 23-24 23h-125c-13 0-23-10-23-23v-125c0-13 10-23 23-23h125c13 0 24 10 24 23z" horiz-adv-x="1000" />

<glyph glyph-name="list-alt" unicode="&#xe815;" d="M906 788h-812c-52 0-94-42-94-94v-688c0-52 42-94 94-94h812c52 0 94 42 94 94v688c0 52-42 94-94 94z m-11-782h-789a12 12 0 0 0-12 12v664a12 12 0 0 0 12 12h789a12 12 0 0 0 11-12v-664a12 12 0 0 0-11-12z m-82 180v-47c0-13-11-23-24-23h-391c-12 0-23 10-23 23v47c0 13 11 23 23 23h391c13 0 24-10 24-23z m0 187v-46c0-13-11-24-24-24h-391c-12 0-23 11-23 24v46c0 13 11 24 23 24h391c13 0 24-11 24-24z m0 188v-47c0-13-11-23-24-23h-391c-12 0-23 10-23 23v47c0 13 11 23 23 23h391c13 0 24-10 24-23z m-493-23c0-39-31-71-70-71s-70 32-70 71 31 70 70 70 70-32 70-70z m0-188c0-39-31-70-70-70s-70 31-70 70 31 70 70 70 70-31 70-70z m0-187c0-39-31-71-70-71s-70 32-70 71 31 70 70 70 70-32 70-70z" horiz-adv-x="1000" />

<glyph glyph-name="list-ul" unicode="&#xe816;" d="M188 663c0-52-42-94-94-94s-94 42-94 94 42 93 94 93 94-42 94-93z m-94-219c-52 0-94-42-94-94s42-94 94-94 94 42 94 94-42 94-94 94z m0-313c-52 0-94-42-94-93s42-94 94-94 94 42 94 94-42 93-94 93z m906 500v63c0 13-10 23-23 23h-704c-12 0-23-10-23-23v-63c0-13 11-23 23-23h704c13 0 23 10 23 23z m0-312v62c0 13-10 24-23 24h-704c-12 0-23-11-23-24v-62c0-13 11-24 23-24h704c13 0 23 11 23 24z m0-313v63c0 13-10 23-23 23h-704c-12 0-23-10-23-23v-63c0-13 11-23 23-23h704c13 0 23 10 23 23z" horiz-adv-x="1000" />

<glyph glyph-name="lock" unicode="&#xe817;" d="M781 475h-62v91c0 156-125 284-281 284-155 0-282-126-282-281v-94h-62c-52 0-94-42-94-94v-437c0-52 42-94 94-94h687c52 0 94 42 94 94v437c0 52-42 94-94 94z m-531 94c0 103 84 187 188 187s187-84 187-187v-94h-375v94z m531-625h-687v437h687v-437z" horiz-adv-x="875" />

<glyph glyph-name="lock-alt" unicode="&#xe818;" d="M438 45c-31 0-55 25-55 55v125c0 30 24 55 55 55s54-25 54-55v-125c0-30-24-55-54-55z m437 336v-437c0-52-42-94-94-94h-687c-52 0-94 42-94 94v437c0 52 42 94 94 94h62v94c0 155 127 281 282 281 156 0 281-128 281-284v-91h62c52 0 94-42 94-94z m-625 94h375v94c0 103-84 187-187 187s-188-84-188-187v-94z m531-94h-687v-437h687v437z" horiz-adv-x="875" />

<glyph glyph-name="meh" unicode="&#xe819;" d="M484 834c-267 0-484-216-484-484s217-484 484-484 485 216 485 484-217 484-485 484z m0-875c-215 0-390 176-390 391s175 391 390 391 391-176 391-391-175-391-391-391z m-156 422c35 0 63 28 63 63s-28 62-63 62-62-28-62-62 28-63 62-63z m313 125c-35 0-63-28-63-62s28-63 63-63 62 28 62 63-28 62-62 62z m15-281h-343c-26 0-47-21-47-47s21-47 47-47h343c26 0 47 21 47 47s-21 47-47 47z" horiz-adv-x="969" />

<glyph glyph-name="meh-blank" unicode="&#xe81a;" d="M484 834c-267 0-484-216-484-484s217-484 484-484 485 216 485 484-217 484-485 484z m0-875c-215 0-390 176-390 391s175 391 390 391 391-176 391-391-175-391-391-391z m-156 547c-34 0-62-28-62-62s28-63 62-63 63 28 63 63-28 62-63 62z m313 0c-35 0-63-28-63-62s28-63 63-63 62 28 62 63-28 62-62 62z" horiz-adv-x="969" />

<glyph glyph-name="meh-rolling-eyes" unicode="&#xe81b;" d="M484 834c-267 0-484-216-484-484s217-484 484-484 485 216 485 484-217 484-485 484z m0-875c-215 0-390 176-390 391s175 391 390 391 391-176 391-391-175-391-391-391z m172 594c-77 0-140-63-140-140s63-141 140-141 141 63 141 141-63 140-141 140z m0-219c-43 0-78 35-78 79 0 26 14 49 35 63-2-5-4-11-4-17 0-26 21-46 47-46s47 20 47 46c0 6-1 12-3 17 20-14 34-37 34-63 0-44-35-79-78-79z m-203 79c0 77-63 140-140 140s-141-63-141-140 63-141 141-141 140 63 140 141z m-219 0c0 26 15 49 35 63-2-5-3-11-3-17 0-26 21-46 47-46s46 20 46 46c0 6-1 12-3 17 20-14 35-37 35-63 0-44-35-79-78-79s-79 35-79 79z m375-250h-250c-25 0-46-22-46-47s21-47 46-47h250c26 0 47 21 47 47s-21 47-47 47z" horiz-adv-x="969" />

<glyph glyph-name="moon" unicode="&#xe81c;" d="M545-150c154 0 295 70 389 185 55 68-5 168-91 151-161-30-309 93-309 256 0 94 51 180 132 226 76 43 56 158-29 174a504 504 0 0 1-92 8c-276 0-500-224-500-500 0-276 224-500 500-500z m0 906c26 0 50-2 74-6-106-61-179-176-179-308 0-223 203-389 421-348-75-92-188-150-316-150-224 0-406 182-406 406s182 406 406 406z" horiz-adv-x="1000" />

<glyph glyph-name="paint-roller" unicode="&#xe81d;" d="M891 709h-78v47c0 52-42 94-94 94h-625c-52 0-94-42-94-94v-187c0-52 42-94 94-94h625c52 0 94 42 94 94v47h78c8 0 15-7 15-16v-187c0-9-7-16-15-16h-391c-60 0-109-49-109-109v-63h-16c-34 0-62-28-62-62v-251c0-34 28-62 62-62h125c35 0 63 28 63 62v251c0 34-28 62-63 62h-16v63c0 8 7 15 16 15h391c60 0 109 49 109 110v187c0 60-49 109-109 109z m-172-140h-625v187h625v-187z m-250-625h-63v187h63v-187z" horiz-adv-x="1000" />

<glyph glyph-name="palette" unicode="&#xe81e;" d="M250 413c-35 0-62-28-62-63s27-62 62-62 63 27 63 62-29 63-63 63z m568 324c-116 95-269 133-418 103-195-38-352-193-390-388-33-164 16-329 132-450 93-97 215-152 328-152 18 0 35 1 51 4 48 7 87 36 110 80 24 47 24 103 0 150-12 23-10 51 4 74 13 23 36 36 62 36h141c91 0 162 70 162 159 0 149-67 289-182 384z m20-449h-141c-58 0-111-31-142-81-32-51-34-113-7-166 10-20 10-44-1-64-5-10-17-27-40-31-96-15-213 33-297 121-95 99-135 233-108 367 31 157 158 284 316 314 122 24 246-7 340-84 94-77 148-191 148-312 0-36-30-64-68-64z m-525 312c-35 0-63-28-63-62s28-63 63-63 62 28 62 63-28 62-62 62z m187 63c-35 0-62-28-62-63s27-62 62-62 63 28 63 62c0 35-28 63-63 63z m188-63c-35 0-63-28-63-62s28-63 63-63 62 28 62 63-28 62-62 62z" horiz-adv-x="1000" />

<glyph glyph-name="paperclip" unicode="&#xe81f;" d="M132-65c-113 113-113 297 0 410l439 440c88 87 229 87 317 0 87-88 87-229 0-317l-370-370c-62-61-162-61-223 0-61 62-61 161 0 223l313 313c10 9 24 9 34 0l33-33c9-9 9-24 0-33l-314-313c-25-25-25-66 0-90 25-25 65-25 90 0l370 370c51 50 51 133 0 183-50 51-133 51-183 0l-440-439c-76-77-76-201 0-278 77-76 201-76 278 0a1444231 1444231 0 0 0 382 383c10 9 24 9 34 0l33-33c9-9 9-24 0-33a1475887 1475887 0 0 1-383-383c-113-113-297-113-410 0z" horiz-adv-x="1000" />

<glyph glyph-name="pen" unicode="&#xe820;" d="M963 740l-73 73c-24 25-56 37-88 37s-64-12-89-37l-145-145-68-68-475-475-25-223c-3-28 19-52 47-52 2 0 3 0 5 0l223 25 475 475 68 68 145 145c49 49 49 128 0 177z m-731-776l-132-14 15 132 451 452 61 60 117-117-60-61-452-452z m665 666l-86-87-118 118 87 86c8 8 17 9 22 9s14-1 22-9l73-73c12-12 12-32 0-44z" horiz-adv-x="1000" />

<glyph glyph-name="pencil" unicode="&#xe821;" d="M960 706l-105 105c-51 52-135 52-186 0l-620-615-48-292c-6-31 22-59 54-53l291 48 615 620c52 51 52 134-1 187z m-724-446l332 331 173-173-331-332v80h-94v94h-80z m-76-305l-55 55 24 144 36 36h81v-94h94v-81l-36-36-144-24z m741 624l0 0-1 0-93-94-172 172 94 93 0 1 0 0c18 18 47 18 65 0l105-106c20-19 20-47 2-66z" horiz-adv-x="1000" />

<glyph glyph-name="pencil-alt" unicode="&#xe822;" d="M960 706l-105 105c-51 52-135 52-186 0l-620-615-48-292c-6-31 22-59 54-53l291 48 615 620c52 51 52 134-1 187z m-568-464c8-9 19-13 30-13s22 4 30 13l233 232 56-56-331-332v80h-94v94h-80l332 331 56-56-232-233c-17-16-17-44 0-60z m-232-287l-55 55 24 144 36 36h81v-94h94v-81l-36-36-144-24z m741 624l0 0-1 0-93-94-172 172 94 93 0 1 0 0c18 18 47 18 65 0l105-106c20-19 20-47 2-66z" horiz-adv-x="1000" />

<glyph glyph-name="pen-square" unicode="&#xe823;" d="M482 503l108-109c5-4 5-12 0-16l-265-265-111-13c-15-1-28 11-26 26l12 112 265 265c5 4 12 4 17 0z m192 25l-59 58c-18 19-48 19-66 0l-45-45c-5-4-5-12 0-16l108-109c5-4 12-4 17 0l45 45c18 19 18 48 0 67z m201 166v-688c0-52-42-94-94-94h-687c-52 0-94 42-94 94v688c0 52 42 94 94 94h687c52 0 94-42 94-94z m-94-676v664c0 7-5 12-11 12h-664c-7 0-12-5-12-12v-664c0-6 5-12 12-12h664c6 0 11 6 11 12z" horiz-adv-x="875" />

<glyph glyph-name="pinterest-p" unicode="&#xe824;" d="M398 837c-200 0-398-133-398-349 0-138 77-216 124-216 20 0 31 54 31 69 0 18-47 57-47 132 0 158 120 269 275 269 133 0 231-76 231-215 0-103-41-298-176-298-49 0-90 35-90 86 0 74 51 145 51 221 0 129-183 106-183-50 0-33 4-69 18-99-27-116-82-289-82-409 0-37 6-73 9-110 7-7 4-7 14-3 98 135 95 161 139 338 24-46 86-71 135-71 208 0 301 203 301 385 0 194-168 320-352 320z" horiz-adv-x="750" />

<glyph glyph-name="quote-right" unicode="&#xe825;" d="M391 788h-250c-78 0-141-64-141-141v-219c0-77 63-140 141-140h109v-16c0-43-35-78-78-78h-16c-51 0-93-42-93-94v-94c0-52 42-94 93-94h16c198 0 359 162 359 360v375c0 77-63 141-140 141z m47-516c0-147-120-266-266-266h-16v94h16c95 0 172 77 172 172v109h-203c-26 0-47 21-47 47v219c0 26 21 47 47 47h250c25 0 47-21 47-47v-375z m546 516h-250c-77 0-140-64-140-141v-219c0-77 63-140 140-140h110v-16c0-43-35-78-78-78h-16c-52 0-94-42-94-94v-94c0-52 42-94 94-94h16c198 0 359 162 359 360v375c0 77-63 141-141 141z m47-516c0-147-119-266-265-266h-16v94h16c94 0 172 77 172 172v109h-204c-25 0-46 21-46 47v219c0 26 21 47 46 47h250c26 0 47-21 47-47v-375z" horiz-adv-x="1125" />

<glyph glyph-name="rss" unicode="&#xe826;" d="M156 131c35 0 63-28 63-62s-28-63-63-63-62 28-62 63 28 62 62 62m0 94c-86 0-156-70-156-156s70-157 156-157 157 70 157 157-70 156-157 156z m719-288c-13 464-387 838-851 851-13 0-24-11-24-24v-47c0-12 10-23 23-23 414-12 746-345 758-759 1-12 11-23 24-23h47c13 0 23 11 23 25z m-266 0c-12 317-267 572-585 584-13 1-24-10-24-23v-47c0-12 10-23 23-23 267-12 481-226 492-493 1-13 11-23 24-23h47c13 0 23 11 23 25z" horiz-adv-x="875" />

<glyph glyph-name="sad-cry" unicode="&#xe827;" d="M484 834c-267 0-484-216-484-484s217-484 484-484 485 216 485 484-217 484-485 484z m282-754v223c0 26-21 47-47 47s-47-21-47-47v-296c-56-30-120-48-188-48s-131 18-187 48v296c0 26-21 47-47 47s-47-21-47-47v-223c-67 70-109 165-109 270 0 215 175 391 390 391s391-176 391-391c0-105-42-200-109-270z m-364 312c9 5 13 14 12 24-8 49-67 82-117 82s-109-33-117-82c-1-10 4-19 12-24 9-5 20-3 27 3l19 17c28 26 90 26 119 0l18-17c5-4 16-9 27-3z m270 106c-50 0-109-33-117-82-1-10 3-19 12-24 9-5 19-3 27 3l18 17c29 26 91 26 119 0l19-17c5-4 16-9 27-3 8 5 13 14 12 24-8 49-67 82-117 82z m-188-179c-60 0-109-56-109-125s49-125 109-125 110 56 110 125-49 125-110 125z" horiz-adv-x="969" />

<glyph glyph-name="sad-tear" unicode="&#xe828;" d="M484 834c-267 0-484-216-484-484s217-484 484-484 485 216 485 484-217 484-485 484z m0-875c-215 0-390 176-390 391s175 391 390 391 391-176 391-391-175-391-391-391z m16 297c-26 0-47-21-47-47s21-46 47-46c47 0 90-21 120-57 16-19 46-23 66-6 20 17 23 46 6 66-47 57-118 90-192 90z m-172 125c35 0 63 28 63 63s-28 62-63 62-62-28-62-62 28-63 62-63z m313 125c-35 0-63-28-63-62s28-63 63-63 62 28 62 63-28 62-62 62z m-324-193c-22-30-71-98-71-133 0-44 37-80 82-80s82 36 82 80c0 35-49 103-71 133-5 8-16 8-22 0z" horiz-adv-x="969" />

<glyph glyph-name="search" unicode="&#xe829;" d="M993-66l-237 237c-4 5-10 7-16 7h-26c61 71 99 164 99 266 0 224-182 406-407 406s-406-182-406-406 182-406 406-406c102 0 195 37 266 98v-25c0-7 2-13 7-17l237-237c9-9 24-9 33 0l44 44c9 9 9 24 0 33z m-587 197c-172 0-312 140-312 313s140 312 312 312 313-140 313-312-140-313-313-313z" horiz-adv-x="1000" />

<glyph glyph-name="shield" unicode="&#xe82a;" d="M464-143c23-9 49-9 72 0 167 70 433 311 433 743 0 38-23 72-58 87l-375 156a94 94 0 0 1-72 0l-375-156c-35-15-58-49-58-87 0-388 224-656 433-743z m36 899l375-156c0-339-192-580-375-656-190 79-375 325-375 656l375 156z" horiz-adv-x="1000" />

<glyph glyph-name="shovel" unicode="&#xe82b;" d="M982 675l-157 157c-12 12-28 18-44 18s-31-6-43-18l-62-62c-33-32-51-76-51-122 0-40 14-69 23-84l-243-243-103 103c-12 12-28 18-44 18s-32-6-44-18l-136-136c-100-100-91-360-45-406 19-19 80-32 150-32 91 0 199 21 255 78l136 136c24 24 24 64 0 88l-103 103 243 243c35-20 67-23 84-23 49 0 94 23 129 57l55 56c24 24 24 63 0 87z m-610-681c-30-30-106-50-189-50-38 0-66 4-81 8-16 57-11 217 42 270l114 114 228-228-114-114z m488 605c-18-19-41-30-64-30-68 0-103 85-54 135l39 39 112-112-33-32z" horiz-adv-x="1000" />

<glyph glyph-name="smile" unicode="&#xe82c;" d="M484 834c-267 0-484-216-484-484s217-484 484-484 485 216 485 484-217 484-485 484z m0-875c-215 0-390 176-390 391s175 391 390 391 391-176 391-391-175-391-391-391z m-156 422c35 0 63 28 63 63s-28 62-63 62-62-28-62-62 28-63 62-63z m313 0c34 0 62 28 62 63s-28 62-62 62-63-28-63-62 28-63 63-63z m7-141c-40-49-100-77-164-77s-123 27-164 77c-16 19-46 22-66 6-20-17-22-47-6-66 59-71 145-111 236-111s178 40 237 111c16 19 13 49-6 66-20 16-50 13-67-6z" horiz-adv-x="969" />

<glyph glyph-name="smile-beam" unicode="&#xe82d;" d="M484 834c-267 0-484-216-484-484s217-484 484-484 485 216 485 484-217 484-485 484z m0-875c-215 0-390 176-390 391s175 391 390 391 391-176 391-391-175-391-391-391z m164 281c-40-49-100-77-164-77s-123 27-164 77c-16 19-46 22-66 6-20-17-22-47-6-66 59-71 145-111 236-111s178 40 237 111c16 19 13 49-6 66-20 16-50 13-67-6z m-381 198c15 27 37 42 61 42s47-15 62-42l18-33c4-7 12-9 18-7 7 2 12 8 12 16-7 82-63 139-110 139s-103-57-109-139c-1-8 4-14 11-16 7-3 14 0 18 7l19 33z m374 115c-47 0-103-57-110-139 0-8 4-14 11-16 7-3 15 0 19 7l18 33c15 27 38 42 62 42s46-15 61-42l19-33c4-7 12-9 18-7 7 2 12 8 11 16-6 82-63 139-109 139z" horiz-adv-x="969" />

<glyph glyph-name="smile-wink" unicode="&#xe82e;" d="M484 834c-267 0-484-216-484-484s217-484 484-484 485 216 485 484-217 484-485 484z m0-875c-215 0-390 176-390 391s175 391 390 391 391-176 391-391-175-391-391-391z m231 286c-20 17-50 14-67-6-40-49-100-77-164-77s-123 28-164 77c-16 20-46 23-66 6-20-16-22-46-6-66 59-70 145-110 236-110s178 40 237 110c16 20 13 50-6 66z m-387 136c35 0 63 28 63 63s-28 62-63 62-62-28-62-62 28-63 62-63z m313 117c-51 0-110-33-117-82-4-22 22-35 38-21l19 17c29 26 90 26 119 0l19-17c16-14 42 0 38 21-7 49-66 82-116 82z" horiz-adv-x="969" />

<glyph glyph-name="spider-black-widow" unicode="&#xe82f;" d="M613 288h-100c-11 0-17-10-10-17l41-46-41-46c-7-7-1-16 10-16h100c10 0 16 9 10 16l-42 46 42 46c6 7 0 17-10 17z m-318 235l60-17 10 51c2 7 4 15 7 23l-40 80 46 139c6 16-3 34-19 40l-30 9c-16 6-34-3-40-19l-50-152a63 63 0 0 1 3-48l53-106z m498 137l-39-80c2-8 4-16 6-23l10-51 60 17 53 106a63 63 0 0 1 3 48l-50 152c-6 16-24 25-40 19l-30-9c-16-6-25-24-19-40l46-139z m327-492l-103 154a63 63 0 0 1-52 28h-152l134 48a63 63 0 0 1 33 24l104 157c10 15 6 34-8 44l-26 17c-15 10-34 6-44-9l-99-148-118-39h-70l-20 101c-5 21-34 118-136 118-103 0-132-97-136-118l-21-101h-70l-118 39-99 148c-10 15-29 19-43 9l-26-17c-15-10-19-29-9-44l105-157a63 63 0 0 1 32-24l135-48h-153c-21 0-40-10-52-28l-103-154c-9-15-5-34 9-44l26-17c14-10 34-6 43 9l94 140h92l-119-190a63 63 0 0 1-9-33v-152c0-17 14-31 31-31h31c17 0 31 14 31 31v143l145 232c-2-28-4-55-4-83 0-103 80-198 188-198s187 95 187 198c0 28-2 55-4 83l145-232v-143c0-17 14-31 31-31h31c17 0 31 14 31 31v152c0 12-3 23-9 33l-119 190h92l94-140c9-15 29-19 43-9l26 17c14 10 18 29 9 44z m-557-99c-57 0-94 54-94 104 0 70 7 140 20 208l29 145c3 10 12 43 45 43 32 0 41-33 44-42l29-146c13-68 20-138 20-208 0-50-37-104-93-104z" horiz-adv-x="1125" />

<glyph glyph-name="sun" unicode="&#xe830;" d="M965 417l-117 79 27 138c5 26-3 53-21 72-19 18-46 26-71 21l-139-27-79 117c-29 44-101 44-130 0l-79-117-139 27c-26 5-52-3-70-22-19-18-27-45-22-71l27-138-117-79c-22-15-35-40-35-66s13-51 35-65l117-80-27-138c-5-26 3-53 22-71 18-19 44-27 70-22l139 27 79-117c14-22 39-35 65-35s51 13 65 35l79 117 139-27c26-5 52 3 71 22 18 18 26 45 21 71l-26 138 116 79c22 15 35 40 35 66 0 26-13 51-35 66z m-220-168l34-178-178 35-101-151-101 151-178-34 35 178-150 101 150 102-35 178 178-34 101 150 101-151 178 35-34-178 150-102-150-102z m-245 304c-112 0-203-91-203-203s91-203 203-203 203 91 203 203-91 203-203 203z m0-312c-60 0-109 49-109 109s49 109 109 109 109-49 109-109-49-109-109-109z" horiz-adv-x="1000" />

<glyph glyph-name="surprise" unicode="&#xe831;" d="M484 834c-267 0-484-216-484-484s217-484 484-484 485 216 485 484-217 484-485 484z m0-875c-215 0-390 176-390 391s175 391 390 391 391-176 391-391-175-391-391-391z m0 344c-69 0-125-56-125-125s56-125 125-125 125 56 125 125-56 125-125 125z m-93 141c0 34-28 62-63 62s-62-28-62-62 28-63 62-63 63 28 63 63z m250 62c-35 0-63-28-63-62s28-63 63-63 62 28 62 63-28 62-62 62z" horiz-adv-x="969" />

<glyph glyph-name="tag" unicode="&#xe832;" d="M973 409l-414 414a94 94 0 0 1-67 27h-398c-52 0-94-42-94-94v-398a94 94 0 0 1 28-67l413-414c37-36 96-36 133 0l399 399c36 37 36 96 0 133z m-465-465l-414 414v398h398l414-414-398-398z m-133 625c0-52-42-94-94-94s-93 42-93 94 42 94 93 94 94-42 94-94z" horiz-adv-x="1000" />

<glyph glyph-name="tags" unicode="&#xe833;" d="M1223 276l-399-399c-37-36-96-36-133 0l0 1 465 464-509 508h95a94 94 0 0 0 67-27l414-414c36-37 36-96 0-133z m-250 0l-399-399c-18-18-42-27-66-27-24 0-48 9-67 27l-413 414a94 94 0 0 0-28 67v398c0 52 42 94 94 94h398a94 94 0 0 0 67-27l414-414c36-37 36-96 0-133z m-67 66l-414 414h-398v-398l414-414 398 398z m-625 321c-51 0-93-42-93-94s42-94 93-94 94 42 94 94-42 94-94 94z" horiz-adv-x="1250" />

<glyph glyph-name="th" unicode="&#xe834;" d="M0 694v-688c0-52 42-94 94-94h812c52 0 94 42 94 94v688c0 52-42 94-94 94h-812c-52 0-94-42-94-94z m922-438h-229v188h229v-188z m-307 0h-230v188h230v-188z m0-78v-187h-230v187h230z m-537 266h229v-188h-229v188z m307 78v187h230v-187h-230z m-78 187v-187h-229v164c0 13 11 23 24 23h205z m-229-531h229v-187h-205c-13 0-24 10-24 23v164z m615-187v187h229v-187h-229z m229 531h-229v187h229v-187z" horiz-adv-x="1000" />

<glyph glyph-name="th-list" unicode="&#xe835;" d="M0 694v-688c0-52 42-94 94-94h812c52 0 94 42 94 94v688c0 52-42 94-94 94h-812c-52 0-94-42-94-94z m922-438h-537v188h537v-188z m0-78v-164c0-13-11-23-24-23h-513v187h537z m-844 266h229v-188h-229v188z m307 78v187h513c13 0 24-10 24-23v-164h-537z m-78 187v-187h-229v164c0 13 11 23 24 23h205z m-229-531h229v-187h-205c-13 0-24 10-24 23v164z" horiz-adv-x="1000" />

<glyph glyph-name="times" unicode="&#xe836;" d="M406 350l210 210c12 13 12 32 0 45l-49 48c-12 13-32 13-44 0l-210-210-211 210c-12 13-32 13-44 0l-49-48c-12-13-12-32 0-45l211-210-211-210c-12-13-12-32 0-44l49-49c12-12 32-12 44 0l211 210 210-210c12-12 32-12 44 0l49 49c12 12 12 31 0 44l-210 210z" horiz-adv-x="625" />

<glyph glyph-name="tired" unicode="&#xe837;" d="M484 834c-267 0-484-216-484-484s217-484 484-484 485 216 485 484-217 484-485 484z m0-875c-215 0-390 176-390 391s175 391 390 391 391-176 391-391-175-391-391-391z m253 594c-8 8-21 10-30 5l-157-94c-7-4-11-12-11-20s4-16 11-20l157-94c10-6 23-3 30 5 7 9 7 21 0 30l-66 79 66 79c7 8 7 21 0 30z m-307-109c0 8-5 16-12 20l-156 94c-10 6-22 3-30-5-7-9-7-22 0-30l66-79-66-79c-7-9-7-21 0-30 7-8 20-11 30-5l156 94c7 4 12 12 12 20z m54-125c-88 0-197-75-210-182-3-23 13-43 30-35 44 19 110 29 180 29s136-10 181-29c16-8 33 11 30 35-14 107-122 182-211 182z" horiz-adv-x="969" />

<glyph glyph-name="twitter" unicode="&#xe838;" d="M897 554c1-9 1-18 1-27 0-271-206-583-583-583-116 0-224 33-315 92 17-2 32-3 50-3 95 0 184 33 254 88-90 2-166 61-192 142 13-2 26-3 39-3 18 0 37 2 54 7-94 19-164 101-164 201v3c27-16 59-25 92-26-55 36-91 99-91 170 0 38 10 73 28 104 101-125 252-206 422-215-3 15-5 31-5 47 0 113 92 205 205 205 59 0 113-25 150-65 46 9 91 26 130 50-15-48-47-88-90-113 41 4 81 16 118 32-28-41-63-77-103-106z" horiz-adv-x="1000" />

<glyph glyph-name="user-edit" unicode="&#xe839;" d="M701 4l-13-119c-2-20 14-37 34-35l119 13 269 270-140 140-269-269z m535 321l-74 74c-18 18-47 18-66 0l-81-82 140-140 82 82c18 18 18 47-1 66z m-799-37c156-1 282 126 282 281 0 153-128 281-281 281-156 0-282-126-282-281 0-153 128-281 281-281z m-8 468c110 5 201-86 196-196-5-96-82-174-179-179-110-5-201 86-196 197 5 96 83 174 179 178z m-166-593c28 0 74-32 175-32 101 0 146 32 175 32 32 0 62-10 88-26l68 67c-44 32-98 52-156 52-57 0-83-31-175-31-92 0-119 31-175 31-145 0-263-117-263-262v-50c0-52 42-94 94-94h504c-7 28-4 40 2 94h-506v50c0 93 76 169 169 169z" horiz-adv-x="1250" />

<glyph glyph-name="user-graduate" unicode="&#xe83a;" d="M26 655l13-4v-74c-14-8-23-22-23-39 0-17 9-30 21-39l-30-122c-3-13 4-27 15-27h81c11 0 19 14 15 27l-30 122c12 8 21 22 21 39 0 17-9 31-23 39v60l91-27c-13-32-21-67-21-104 0-155 126-281 282-281s281 126 281 281c0 37-8 72-21 104l151 45c35 10 35 68 0 78l-378 112c-11 3-22 5-33 5s-23-2-33-5l-379-112c-35-10-35-68 0-78z m412-336c-104 0-188 84-188 187 0 28 6 54 17 77l138-41c29-8 53-4 66 0l137 41c11-23 17-49 17-77 0-103-84-187-187-187z m-7 436c2 1 7 2 13 0l207-61-207-62c-4-1-8-1-13 0l-207 62 207 61z m193-531l-186-155-187 155c-139-6-251-120-251-262v-18c0-52 42-94 94-94h687c52 0 94 42 94 94v18c0 142-111 256-251 262z m-233-280h-297v18c0 79 54 146 129 164l168-140v-42z m390 0h-297v42l168 140c75-18 129-85 129-164v-18z" horiz-adv-x="875" />

<glyph glyph-name="user-tag" unicode="&#xe83b;" d="M1232 137l-177 177c-23 23-55 36-88 36h-155c-35 0-63-28-63-62v-155c0-33 14-65 37-88l176-177c25-24 64-24 89 0l180 181c25 24 25 64 1 88z m-357 41c-26 0-47 21-47 47s21 47 47 47 47-21 47-47c0-26-21-47-47-47z m-781-234v50c0 93 76 169 169 169 28 0 74-31 175-31 101 0 146 31 175 31 15 0 29-3 43-7v96c-14 3-29 4-43 4-57 0-83-31-175-31-92 0-119 31-175 31-145 0-263-117-263-262v-50c0-52 42-94 94-94h687c19 0 37 6 52 16l-79 78h-660z m344 344c155 0 281 126 281 281s-126 281-281 281-282-126-282-281c0-155 126-281 282-281z m0 468c103 0 187-84 187-187 0-104-84-188-187-188s-188 84-188 188c0 103 84 187 188 187z" horiz-adv-x="1250" />

<glyph glyph-name="vk" unicode="&#xe83c;" d="M1065 620c7 25 0 43-35 43h-115c-30 0-43-16-50-33 0 0-59-143-142-235-26-27-39-36-53-36-8 0-19 9-19 33v228c0 29-8 43-32 43h-181c-18 0-29-14-29-27 0-28 41-34 45-112v-170c0-37-6-44-21-44-39 0-134 144-190 308-12 32-23 45-52 45h-115c-33 0-40-16-40-33 0-31 39-182 182-382 95-136 229-210 351-210 73 0 82 16 82 44 0 131-6 143 30 143 17 0 47-9 115-74 78-78 91-113 135-113h115c33 0 49 16 40 48-22 69-170 209-177 218-17 22-12 32 0 51 1 1 141 198 156 265z" horiz-adv-x="1125" />

<glyph glyph-name="angle-double-left" unicode="&#xe83d;" d="M40 367l286 289c9 9 24 9 33 0l39-39c9-9 9-24 0-33l-231-234 231-234c9-9 9-24 0-33l-39-39c-9-9-24-9-33 0l-286 289c-10 10-10 24 0 34z m312-34l287-289c9-9 24-9 33 0l39 39c9 9 9 24 0 33l-232 234 232 234c9 9 9 24 0 33l-39 39c-9 9-24 9-33 0l-287-289c-9-10-9-24 0-34z" horiz-adv-x="750" />

<glyph glyph-name="angle-double-right" unicode="&#xe83e;" d="M711 333l-287-289c-9-9-24-9-33 0l-39 39c-9 9-9 24 0 33l231 234-231 234c-9 9-9 24 0 33l39 39c9 9 24 9 33 0l287-289c9-10 9-24 0-34z m-313 34l-287 289c-9 9-24 9-33 0l-38-39c-10-9-10-24 0-33l231-234-231-234c-10-9-10-24 0-33l38-39c9-9 24-9 33 0l287 289c9 10 9 24 0 34z" horiz-adv-x="750" />

<glyph glyph-name="angle-left" unicode="&#xe83f;" d="M8 367l287 289c9 9 24 9 33 0l39-39c9-9 9-24 0-33l-232-234 232-234c9-9 9-24 0-33l-39-39c-9-9-24-9-33 0l-287 289c-9 10-9 24 0 34z" horiz-adv-x="375" />

<glyph glyph-name="angle-right" unicode="&#xe840;" d="M367 333l-287-289c-9-9-24-9-33 0l-39 39c-9 9-9 24 0 33l232 234-232 234c-9 9-9 24 0 33l39 39c9 9 24 9 33 0l287-289c9-10 9-24 0-34z" horiz-adv-x="375" />

<glyph glyph-name="angry" unicode="&#xe841;" d="M484 834c-267 0-484-216-484-484s217-484 484-484 485 216 485 484-217 484-485 484z m0-875c-215 0-390 176-390 391s175 391 390 391 391-176 391-391-175-391-391-391z m0 282c-65 0-127-29-169-80-17-20-14-49 6-66s49-14 66 6c48 58 146 58 195 0 16-19 45-23 66-6 20 17 22 46 6 66-42 51-104 80-170 80z m-93 140c20 0 39 13 45 34 7 25-7 51-32 58l-156 47c-25 8-51-7-58-31-8-25 6-51 31-59l55-16c-6-10-10-21-10-33 0-34 28-62 62-62s63 28 63 62z m388 108c-7 24-33 38-58 31l-156-47c-25-7-39-33-32-58 6-21 25-34 45-34 0-34 28-62 63-62s62 28 62 62c0 12-4 23-10 33l55 16c25 8 39 34 31 59z" horiz-adv-x="969" />

<glyph glyph-name="arrow-circle-left" unicode="&#xe842;" d="M984 350c0 268-216 484-484 484s-484-216-484-484 216-484 484-484 484 216 484 484z m-875 0c0 216 175 391 391 391s391-175 391-391-175-391-391-391-391 175-391 391z m370-254l-237 237c-10 10-10 24 0 34l237 237c9 9 24 9 33 0l38-39c10-9 9-24 0-33l-137-131h314c13 0 23-11 23-24v-54c0-13-10-24-23-24h-314l137-131c9-9 10-24 0-33l-38-39c-9-9-24-9-33 0z" horiz-adv-x="1000" />

<glyph glyph-name="arrow-circle-right" unicode="&#xe843;" d="M16 350c0-268 216-484 484-484s484 216 484 484-216 484-484 484-484-216-484-484z m875 0c0-216-175-391-391-391s-391 175-391 391 175 391 391 391 391-175 391-391z m-370 254l237-237c10-10 10-24 0-34l-237-237c-9-9-24-9-33 0l-38 39c-10 9-9 24 0 33l138 131h-315c-12 0-23 11-23 24v54c0 13 11 24 23 24h315l-138 131c-9 9-10 24 0 33l38 39c9 9 24 9 33 0z" horiz-adv-x="1000" />

<glyph glyph-name="at" unicode="&#xe844;" d="M984 397c0 266-214 437-484 437-268 0-484-216-484-484 0-268 216-484 484-484 103 0 205 33 287 94 11 8 13 23 4 34l-29 36c-8 10-22 11-32 4-67-48-147-75-230-75-215 0-391 176-391 391s176 391 391 391c214 0 391-127 391-344 0-123-83-192-162-192-39 0-40 25-32 61l55 291c3 14-8 27-23 27h-76a23 23 0 0 1-23-19c-2-11-3-16-5-27-23 38-70 61-127 61-140 0-264-122-264-299 0-119 65-199 182-199 59 0 120 33 156 82 8-60 56-74 116-74 194 0 296 124 296 288z m-535-190c-55 0-88 38-88 101 0 113 77 183 145 183 59 0 89-42 89-101 0-91-65-183-146-183z" horiz-adv-x="1000" />

<glyph glyph-name="ban" unicode="&#xe845;" d="M500 834c-267 0-484-216-484-484s217-484 484-484 484 217 484 484-216 484-484 484z m276-208c143-143 151-366 31-517l-548 548c151 120 374 112 517-31z m-552-552c-143 143-151 366-31 517l548-548c-151-120-374-112-517 31z" horiz-adv-x="1000" />

<glyph glyph-name="book" unicode="&#xe846;" d="M250 553v63c0 8 7 15 16 15h406c9 0 16-7 16-15v-63c0-8-7-15-16-15h-406c-9 0-16 7-16 15z m16-172h406c9 0 16 7 16 16v62c0 9-7 16-16 16h-406c-9 0-16-7-16-16v-62c0-9 7-16 16-16z m584-312c-8-25-8-100 0-126 14-3 25-15 25-31v-31c0-17-14-31-31-31h-688c-86 0-156 70-156 156v688c0 86 70 156 156 156h688c17 0 31-14 31-31v-719c0-15-11-28-25-31z m-80 0h-614c-34 0-62-28-62-63 0-34 28-62 62-62h614c-6 33-6 91 0 125z m11 687h-625c-34 0-62-28-62-62v-545c19 9 40 14 62 14h625v593z" horiz-adv-x="875" />

<glyph glyph-name="book-open" unicode="&#xe847;" d="M1098 850c-25 0-304-13-473-111-169 98-448 111-472 111-85 0-153-67-153-149v-613c0-80 63-145 144-150 72-3 252-18 367-75 16-8 34-12 52-13v0h125v0c17 1 35 5 51 13 115 57 295 72 367 75 81 5 144 70 144 150v613c0 82-68 149-152 149z m-520-856c0-21-21-37-41-29-127 48-301 63-388 67-31 2-55 26-55 56v613c0 30 26 55 59 55 38 0 247-15 387-79 23-10 38-32 38-57l0-207v-419z m578 94c0-30-24-54-55-56-87-4-261-19-387-67-21-8-42 8-42 29v419l0 207c0 25 15 47 38 57 140 64 349 79 388 79 32 0 58-25 58-55v-613z" horiz-adv-x="1250" />

<glyph glyph-name="books" unicode="&#xe848;" d="M1124-38l-228 865c-5 16-22 26-39 22l-30-8c-15-4-24-18-23-32-22-15-125-42-152-41-6 13-21 20-36 16l-22-6v10c0 34-28 62-78 62h-469c-19 0-47-28-47-62v-876c0-34 28-62 47-62h469c50 0 78 28 78 62v712l198-751c4-16 22-26 38-22l30 8c15 4 25 18 24 32 22 15 125 42 152 41 6-13 21-20 36-16l30 8c16 4 26 21 22 38z m-874-18h-156v94h156v-94z m0 187h-156v438h156v-438z m0 532h-156v93h156v-93z m250-719h-156v94h156v-94z m0 187h-156v438h156v-438z m0 532h-156v93h156v-93z m363-694l-190 721c33 4 119 27 151 41l190-721c-33-4-118-27-151-41z" horiz-adv-x="1125" />

<glyph glyph-name="book-spells" unicode="&#xe849;" d="M875 100v719c0 17-14 31-31 31h-688c-86 0-156-70-156-156v-688c0-86 70-156 156-156h688c17 0 31 14 31 31v31c0 16-11 28-25 31-8 26-8 101 0 126 14 3 25 16 25 31z m-105-156h-614c-34 0-62 28-62 62 0 35 28 63 62 63h614c-6-34-6-92 0-125z m11 219h-625c-22 0-43-5-62-14v545c0 34 28 62 62 62h625v-593z m-302 166l52-104 52 104 105 52-105 52-52 105-52-105-104-52 104-52z m-166 130l36 73 73 37-73 36-36 73-37-73-73-36 73-37 37-73z" horiz-adv-x="875" />

<glyph glyph-name="browser" unicode="&#xe84a;" d="M906 788h-812c-52 0-94-42-94-94v-688c0-52 42-94 94-94h812c52 0 94 42 94 94v688c0 52-42 94-94 94z m-812-118c0 13 10 24 23 24h78c13 0 24-11 24-24v-47c0-12-11-23-24-23h-78c-13 0-23 11-23 23v47z m812-652c0-6-5-12-11-12h-789c-7 0-12 6-12 12v504h812v-504z m0 605c0-12-10-23-23-23h-547c-13 0-23 11-23 23v47c0 13 10 24 23 24h547c13 0 23-11 23-24v-47z" horiz-adv-x="1000" />

<glyph glyph-name="bug" unicode="&#xe84b;" d="M1047 334h-125v184l80 80c18 18 18 48 0 66-18 19-48 19-66 0l-80-80h-26c0 147-119 266-265 266-147 0-266-119-266-266h-30l-80 80c-18 19-48 19-66 0-18-18-18-48 0-66l80-80v-184h-125c-26 0-47-21-47-46s21-47 47-47h125v-47c0-57 16-111 43-157l-107-107c-19-18-19-48 0-66 18-19 48-19 66 0l100 99c55-51 129-82 211-82h93c82 0 156 31 211 82l100-99c18-19 48-19 66 0 19 18 19 48 0 66l-106 107c26 46 42 100 42 157v47h125c26 0 47 21 47 47s-21 46-47 46z m-482 422c94 0 171-77 171-172h-343c0 95 77 172 172 172z m44-781v367c0 13-10 24-23 24h-47c-13 0-23-11-23-24v-367c-121 0-219 98-219 219v297h531v-297c0-121-98-219-219-219z" horiz-adv-x="1125" />

<glyph glyph-name="calendar" unicode="&#xe84c;" d="M781 725h-93v102c0 13-11 23-24 23h-78c-13 0-23-10-23-23v-102h-250v102c0 13-11 23-24 23h-78c-13 0-23-10-23-23v-102h-94c-52 0-94-42-94-94v-687c0-52 42-94 94-94h687c52 0 94 42 94 94v687c0 52-42 94-94 94z m-11-781h-664c-7 0-12 5-12 11v583h687v-583c0-6-5-11-11-11z" horiz-adv-x="875" />

<glyph glyph-name="calendar-alt" unicode="&#xe84d;" d="M781 725h-93v94c0 17-15 31-32 31h-62c-17 0-31-14-31-31v-94h-250v94c0 17-15 31-32 31h-62c-17 0-31-14-31-31v-94h-94c-52 0-94-42-94-94v-687c0-52 42-94 94-94h687c52 0 94 42 94 94v687c0 52-42 94-94 94z m0-187v-157h-187v157h187z m-437-375v156h187v-156h-187z m187-63v-156h-187v156h187z m-250 63h-187v156h187v-156z m63 218v157h187v-157h-187z m250-62h187v-156h-187v156z m-313 219v-157h-187v157h187z m-187-583v145h187v-156h-175c-7 0-12 5-12 11z m676-11h-176v156h187v-145c0-6-5-11-11-11z" horiz-adv-x="875" />

<glyph glyph-name="calendar-week" unicode="&#xe84e;" d="M219 256h437c17 0 32 14 32 32v125c0 17-15 31-32 31h-437c-17 0-31-14-31-31v-125c0-18 14-32 31-32z m562 469h-93v94c0 17-15 31-32 31h-62c-17 0-31-14-31-31v-94h-250v94c0 17-15 31-32 31h-62c-17 0-31-14-31-31v-94h-94c-52 0-94-42-94-94v-687c0-52 42-94 94-94h687c52 0 94 42 94 94v687c0 52-42 94-94 94z m0-770c0-6-5-11-11-11h-664c-7 0-12 5-12 11v583h687v-583z" horiz-adv-x="875" />

<glyph glyph-name="caret-left" unicode="&#xe84f;" d="M438 131v438c0 83-101 125-160 66l-219-219c-37-36-37-96 0-132l219-219c58-59 160-17 160 66z m-313 219l219 219v-438l-219 219z" horiz-adv-x="438" />

<glyph glyph-name="caret-right" unicode="&#xe850;" d="M0 569v-438c0-83 101-125 160-66l219 219c36 36 36 96 0 132l-219 219c-59 59-160 17-160-66z m313-219l-219-219v438l219-219z" horiz-adv-x="438" />

<glyph glyph-name="chevron-circle-left" unicode="&#xe851;" d="M984 350c0 268-216 484-484 484s-484-216-484-484 216-484 484-484 484 216 484 484z m-875 0c0 216 175 391 391 391s391-175 391-391-175-391-391-391-391 175-391 391z m210 17l240 239c9 10 24 10 33 0l45-44c9-9 9-24 0-33l-180-179 180-179c9-9 9-24 0-33l-45-44c-9-10-24-10-33 0l-240 239c-9 10-9 24 0 34z" horiz-adv-x="1000" />

<glyph glyph-name="chevron-circle-right" unicode="&#xe852;" d="M16 350c0-268 216-484 484-484s484 216 484 484-216 484-484 484-484-216-484-484z m875 0c0-216-175-391-391-391s-391 175-391 391 175 391 391 391 391-175 391-391z m-210-17l-240-239c-9-10-24-10-33 0l-44 44c-10 9-10 24 0 33l179 179-179 179c-10 9-10 24 0 33l44 44c9 10 24 10 33 0l240-239c9-10 9-24 0-34z" horiz-adv-x="1000" />

<glyph glyph-name="chevron-left" unicode="&#xe853;" d="M452-76l38 39c10 9 10 24 0 33l-352 354 352 354c10 9 10 24 0 33l-38 39c-9 9-24 9-33 0l-409-409c-10-10-10-24 0-34l409-409c9-9 24-9 33 0z" horiz-adv-x="500" />

<glyph glyph-name="chevron-right" unicode="&#xe854;" d="M48 776l-38-39c-10-9-10-24 0-33l353-354-353-354c-10-9-10-24 0-33l38-39c9-9 24-9 33 0l409 409c10 10 10 24 0 34l-409 409c-9 9-24 9-33 0z" horiz-adv-x="500" />

<glyph glyph-name="circle" unicode="&#xe855;" d="M500 834c-268 0-484-216-484-484s216-484 484-484 484 216 484 484-216 484-484 484z m0-875c-216 0-391 175-391 391s175 391 391 391 391-175 391-391-175-391-391-391z" horiz-adv-x="1000" />

<glyph glyph-name="clipboard-list" unicode="&#xe856;" d="M547 381h-219c-8 0-15-7-15-15v-32c0-8 7-15 15-15h219c9 0 16 7 16 15v32c0 8-7 15-16 15z m0-187h-219c-8 0-15-7-15-16v-31c0-9 7-16 15-16h219c9 0 16 7 16 16v31c0 9-7 16-16 16z m-328 203c-26 0-47-21-47-47s21-47 47-47 47 21 47 47-21 47-47 47z m0-188c-26 0-47-20-47-46s21-47 47-47 47 21 47 47-21 46-47 46z m437 516h-156c0 69-56 125-125 125s-125-56-125-125h-156c-52 0-94-42-94-94v-687c0-52 42-94 94-94h562c52 0 94 42 94 94v687c0 52-42 94-94 94z m-281 31c17 0 31-14 31-31s-14-31-31-31-31 14-31 31 14 31 31 31z m281-797c0-8-7-15-15-15h-532c-8 0-15 7-15 15v657c0 8 7 15 15 15h79v-62c0-17 14-31 31-31h312c17 0 32 14 32 31v62h78c8 0 15-7 15-15v-657z" horiz-adv-x="750" />

<glyph glyph-name="cloud-download" unicode="&#xe857;" d="M1062 459c-8 114-102 204-218 204-15 0-30-2-44-5-62 78-159 130-269 130-165 0-303-117-336-273-117-48-195-162-195-290 0-173 140-313 313-313h656c155 0 281 127 281 282 0 121-77 226-188 265z m-93-453h-656c-121 0-219 98-219 219 0 110 81 201 187 217v2c0 138 112 250 250 250 105 0 194-64 232-155 21 18 50 30 81 30 69 0 125-56 125-125 0-23-6-45-17-63 5 0 11 0 17 0 103 0 187-84 187-187s-84-188-187-188z m-220 345c-9 9-24 9-33 0l-107-109v272c0 13-10 24-23 24h-47c-13 0-23-11-23-24v-272l-107 109c-9 9-24 9-33 0l-33-33c-9-9-9-24 0-33l203-204c9-9 24-9 33 0l203 204c9 9 9 24 0 33l-33 33z" horiz-adv-x="1250" />

<glyph glyph-name="cloud-download-alt" unicode="&#xe858;" d="M1062 459c-8 114-102 204-218 204-15 0-30-2-44-5-62 78-159 130-269 130-165 0-303-117-336-273-117-48-195-162-195-290 0-173 140-313 313-313h656c155 0 281 127 281 282 0 121-77 226-188 265z m-93-453h-656c-121 0-219 98-219 219 0 110 81 201 187 217v2c0 138 112 250 250 250 105 0 194-64 232-155 21 18 50 30 81 30 69 0 125-56 125-125 0-23-6-45-17-63 5 0 11 0 17 0 103 0 187-84 187-187s-84-188-187-188z m-213 344h-131v164c0 13-10 24-23 24h-79c-12 0-23-11-23-24v-164h-131c-21 0-31-25-16-40l193-193c9-10 24-10 33 0l194 193c14 15 4 40-17 40z" horiz-adv-x="1250" />

<glyph glyph-name="comment" unicode="&#xe859;" d="M500 788c-276 0-500-182-500-407 0-93 39-178 103-246-29-77-89-143-90-143-13-14-17-34-9-51s24-29 43-29c120 0 215 51 272 91 56-18 117-28 181-28 276 0 500 182 500 406s-224 407-500 407z m0-719c-52 0-104 8-153 23l-44 14-38-26c-28-20-67-42-113-57 14 24 28 50 39 78l21 55-40 43c-36 38-78 100-78 182 0 173 182 313 406 313s406-140 406-313-182-312-406-312z" horiz-adv-x="1000" />

<glyph glyph-name="comment-dots" unicode="&#xe85a;" d="M281 444c-34 0-62-28-62-63s28-62 62-62 63 28 63 62-28 63-63 63z m219 0c-35 0-62-28-62-63s27-62 62-62 63 28 63 62-28 63-63 63z m219 0c-35 0-63-28-63-63s28-62 63-62 62 28 62 62-28 63-62 63z m-219 344c-276 0-500-182-500-407 0-93 39-178 103-246-29-77-89-143-90-143-13-14-17-34-9-51s24-29 43-29c120 0 215 51 272 91 56-18 117-28 181-28 276 0 500 182 500 406s-224 407-500 407z m0-719c-52 0-104 8-153 23l-44 14-38-26c-28-20-67-42-113-57 14 24 28 50 39 78l21 55-40 43c-36 38-78 100-78 182 0 173 182 313 406 313s406-140 406-313-182-312-406-312z" horiz-adv-x="1000" />

<glyph glyph-name="comment-edit" unicode="&#xe85b;" d="M322 313l-9-84c-1-11 8-21 19-20l84 10 167 167-94 94-167-167z m311 261c-13 14-36 14-49 0l-56-55 94-94 55 55c14 14 14 36 0 50l-44 44z m-133 214c-276 0-500-182-500-407 0-93 39-178 103-246-29-77-89-143-90-143-13-14-17-34-9-51s24-29 43-29c120 0 215 51 272 91 56-18 117-28 181-28 276 0 500 182 500 406s-224 407-500 407z m0-719c-52 0-104 8-153 23l-44 14-38-26c-28-20-67-42-113-57 14 24 28 50 39 78l21 55-40 43c-36 38-78 100-78 182 0 173 182 313 406 313s406-140 406-313-182-312-406-312z" horiz-adv-x="1000" />

<glyph glyph-name="comment-exclamation" unicode="&#xe85c;" d="M500 288c-35 0-62-28-62-63s27-62 62-62 63 27 63 62-28 63-63 63z m56 312h-112c-20 0-34-18-31-37l35-187c3-15 16-26 31-26h42c15 0 28 11 31 26l35 187c3 19-11 37-31 37z m-56 188c-276 0-500-182-500-407 0-93 39-178 103-246-29-77-89-143-90-143-13-14-17-34-9-51s24-29 43-29c120 0 215 51 272 91 56-18 117-28 181-28 276 0 500 182 500 406s-224 407-500 407z m0-719c-52 0-104 8-153 23l-44 14-38-26c-28-20-67-42-113-57 14 24 28 50 39 78l21 55-40 43c-36 38-78 100-78 182 0 173 182 313 406 313s406-140 406-313-182-312-406-312z" horiz-adv-x="1000" />

<glyph glyph-name="comment-plus" unicode="&#xe85d;" d="M656 428h-109v110c0 17-14 31-31 31h-32c-17 0-31-14-31-31v-110h-109c-17 0-31-14-31-31v-31c0-18 14-32 31-32h109v-109c0-17 14-31 31-31h32c17 0 31 14 31 31v109h109c17 0 32 14 32 32v31c0 17-15 31-32 31z m-156 360c-276 0-500-182-500-407 0-93 39-178 103-246-29-77-89-143-90-143-13-14-17-34-9-51s24-29 43-29c120 0 215 51 272 91 56-18 117-28 181-28 276 0 500 182 500 406s-224 407-500 407z m0-719c-52 0-104 8-153 23l-44 14-38-26c-28-20-67-42-113-57 14 24 28 50 39 78l21 55-40 43c-36 38-78 100-78 182 0 173 182 313 406 313s406-140 406-313-182-312-406-312z" horiz-adv-x="1000" />

<glyph glyph-name="comments" unicode="&#xe85e;" d="M1039 96c54 53 86 119 86 192 0 156-149 285-344 308-62 112-206 192-375 192-224 0-406-140-406-313 0-72 32-139 86-192-30-60-73-106-74-107-12-13-16-32-8-49 7-16 23-27 41-27 105 0 189 39 245 76 18-4 36-8 55-10 61-112 205-191 374-191 40 0 79 5 117 13 55-36 139-76 244-76 18 0 34 11 42 28 7 16 3 36-9 49-1 0-44 47-74 107z m-767 180l-33-22c-28-17-56-31-85-41 6 9 11 18 16 28l30 61-48 48c-27 26-58 69-58 125 0 119 143 219 312 219s313-100 313-219-143-219-313-219c-32 0-64 4-95 11l-39 9z m701-113l-48-48 30-61c5-10 11-20 16-29-29 10-57 24-84 42l-34 22-38-9c-32-7-64-11-96-11-106 0-200 39-257 97 198 21 351 151 351 309 0 7-1 13-2 20 126-29 220-111 220-207 0-57-31-99-58-125z" horiz-adv-x="1125" />

<glyph glyph-name="comments-alt" unicode="&#xe85f;" d="M1000 538h-187v187c0 69-57 125-125 125h-563c-69 0-125-56-125-125v-312c0-69 56-125 125-125h63v-102c0-14 11-23 23-23 5 0 10 1 14 4l150 85v-152c0-69 56-125 125-125h188l212-120c5-3 9-5 14-5 12 0 24 10 24 23v102h62c69 0 125 56 125 125v313c0 68-56 125-125 125z m-812-157h-63c-17 0-31 14-31 32v312c0 17 14 31 31 31h563c17 0 31-14 31-31v-312c0-18-14-32-31-32h-275l-22-12-110-62v74h-93z m843-281c0-17-14-31-31-31h-156v-75l-110 63-22 12h-212c-17 0-31 14-31 31v188h219c68 0 125 56 125 125v31h187c17 0 31-14 31-31v-313z" horiz-adv-x="1125" />

<glyph glyph-name="comment-smile" unicode="&#xe860;" d="M636 318c-33-39-83-62-136-62s-102 23-136 62c-17 20-47 22-66 6-20-17-22-47-6-66 52-61 128-95 208-95s156 34 207 95c17 19 15 49-5 66-19 16-49 14-66-6z m-261 95c35 0 63 27 63 62s-28 63-63 63-62-28-62-63 27-62 62-62z m250 0c35 0 63 27 63 62s-28 63-63 63-62-28-62-63 27-62 62-62z m-125 375c-276 0-500-182-500-407 0-93 39-178 103-246-29-77-89-143-90-143-13-14-17-34-9-51s24-29 43-29c120 0 215 51 272 91 56-18 117-28 181-28 276 0 500 182 500 406s-224 407-500 407z m0-719c-52 0-104 8-153 23l-44 14-38-26c-28-20-67-42-113-57 14 24 28 50 39 78l21 55-40 43c-36 38-78 100-78 182 0 173 182 313 406 313s406-140 406-313-182-312-406-312z" horiz-adv-x="1000" />

<glyph glyph-name="comment-times" unicode="&#xe861;" d="M644 503l-22 22c-13 12-32 12-45 0l-77-77-77 77c-12 12-32 12-44 0l-23-22c-12-12-12-32 0-44l78-78-78-77c-12-12-12-32 0-44l23-22c12-12 32-12 44 0l77 77 77-77c13-12 32-12 45 0l22 22c12 12 12 32 0 44l-78 77 78 78c12 12 12 32 0 44z m-144 285c-276 0-500-182-500-407 0-93 39-178 103-246-29-77-89-143-90-143-13-14-17-34-9-51s24-29 43-29c120 0 215 51 272 91 56-18 117-28 181-28 276 0 500 182 500 406s-224 407-500 407z m0-719c-52 0-104 8-153 23l-44 14-38-26c-28-20-67-42-113-57 14 24 28 50 39 78l21 55-40 43c-36 38-78 100-78 182 0 173 182 313 406 313s406-140 406-313-182-312-406-312z" horiz-adv-x="1000" />

<glyph glyph-name="copyright" unicode="&#xe862;" d="M500 834c-267 0-484-216-484-484s217-484 484-484 484 217 484 484-216 484-484 484z m0-875c-216 0-391 175-391 391 0 216 175 391 391 391 216 0 391-175 391-391 0-216-175-391-391-391z m210 198c-19-19-89-81-204-81-161 0-274 120-274 276 0 155 118 273 273 273 109 0 173-52 191-68a23 23 0 0 0 3-30l-35-55c-8-12-23-14-34-6-17 13-62 44-121 44-94 0-152-69-152-156 0-81 53-164 153-164 64 0 111 38 128 54 11 9 27 7 35-4l39-53a23 23 0 0 0-2-30z" horiz-adv-x="1000" />

<glyph glyph-name="dizzy" unicode="&#xe863;" d="M484 834c-267 0-484-216-484-484s217-484 484-484 485 216 485 484-217 484-485 484z m0-875c-215 0-390 176-390 391s175 391 390 391 391-176 391-391-175-391-391-391z m-66 426c16 15 16 40 0 55l-35 35 35 35c16 15 16 40 0 55-15 16-40 16-55 0l-35-35-35 35c-15 15-40 15-55 0-15-15-15-40 0-55l35-35-35-35c-15-15-15-40 0-55 15-16 40-16 55 0l35 34 35-34c15-15 40-15 55 0z m313 180c-15 15-40 15-55 0l-35-35-35 35c-15 15-40 15-55 0-16-15-16-40 0-55l35-35-35-35c-16-15-16-40 0-55 15-16 40-16 55 0l35 34 34-34c16-16 40-16 56 0 15 15 15 40 0 55l-35 35 35 35c15 15 15 40 0 55z m-247-246c-69 0-125-56-125-125s56-125 125-125 125 56 125 125-56 125-125 125z" horiz-adv-x="969" />

<glyph glyph-name="dot-circle" unicode="&#xe864;" d="M500 741c216 0 391-175 391-391 0-216-175-391-391-391-216 0-391 175-391 391 0 216 175 391 391 391m0 93c-267 0-484-216-484-484s217-484 484-484 484 217 484 484-216 484-484 484z m0-328c-86 0-156-70-156-156s70-156 156-156 156 70 156 156-70 156-156 156z" horiz-adv-x="1000" />

<glyph glyph-name="download" unicode="&#xe865;" d="M1031 288h-180l90 90c59 58 18 160-66 160h-125v218c0 52-42 94-94 94h-187c-52 0-94-42-94-94v-218h-125c-83 0-125-101-66-160l90-90h-180c-52 0-94-42-94-94v-250c0-52 42-94 94-94h937c52 0 94 42 94 94v250c0 52-42 94-94 94z m-781 156h219v312h187v-312h219l-312-313-313 313z m781-500h-937v250h273l129-129c37-37 96-36 133 0l128 129h274v-250z m-172 125c0 26 21 47 47 47s47-21 47-47-21-47-47-47-47 21-47 47z" horiz-adv-x="1125" />

<glyph glyph-name="engine-warning" unicode="&#xe866;" d="M625 788c-242 0-437-196-437-438 0-242 195-438 437-438s438 196 438 438c0 242-196 438-438 438z m0-782c-190 0-344 154-344 344s154 344 344 344 344-154 344-344-154-344-344-344z m0 219c-34 0-62-28-62-62s28-63 62-63 63 28 63 63-28 62-63 62z m44 375h-88c-18 0-32-16-31-34l25-250c2-16 15-28 31-28h38c16 0 29 12 31 28l25 250c2 18-13 34-31 34z m-575-250c0 116 38 229 108 321 10 14 9 32-4 43l-24 20c-13 12-34 10-45-4-83-109-129-242-129-380 0-138 46-271 129-380 11-14 32-16 45-4l24 20c13 11 14 29 4 43-70 92-108 205-108 321z m1025 383c-11 14-32 16-46 4l-23-20c-13-11-14-30-4-43 71-92 110-206 110-324 0-118-39-232-110-324-10-13-9-32 4-43l23-20c14-12 35-11 46 4 85 109 131 244 131 383 0 139-46 274-131 383z" horiz-adv-x="1250" />

<glyph glyph-name="envelope" unicode="&#xe867;" d="M906 725h-812c-52 0-94-42-94-94v-562c0-52 42-94 94-94h812c52 0 94 42 94 94v562c0 52-42 94-94 94z m0-94v-79c-43-36-113-92-263-208-32-26-98-88-143-88-45 0-110 62-143 88-150 116-219 172-263 208v79h812z m-812-562v362c45-35 108-85 205-161 42-34 117-108 201-107 83-1 157 72 201 107 97 76 161 126 205 161v-362h-812z" horiz-adv-x="1000" />

<glyph glyph-name="envelope-open" unicode="&#xe868;" d="M966 529c-9 7-218 175-264 212-43 34-117 109-202 109-84 0-157-74-202-109-48-38-256-206-264-212a94 94 0 0 1-34-72v-513c0-52 42-94 94-94h812c52 0 94 42 94 94v512a94 94 0 0 1-34 73z m-60-574a12 12 0 0 0-11-11h-789a12 12 0 0 0-12 11v496c0 3 1 7 4 9 31 25 213 171 259 208 35 28 97 88 143 88 46 0 109-61 143-88 46-37 228-183 259-208a12 12 0 0 0 4-9v-496z m-62 367c8-10 7-25-4-33-56-46-115-93-138-111-44-36-118-109-202-109-85 0-159 74-202 109-22 17-81 65-138 111-10 8-12 23-4 33l30 36c8 10 23 12 33 4 56-45 114-92 138-111 34-27 97-88 143-88 46 0 108 60 143 88 24 19 82 66 138 111 10 8 25 6 33-4l30-36z" horiz-adv-x="1000" />

<glyph glyph-name="exclamation-circle" unicode="&#xe869;" d="M500 834c-267 0-484-217-484-484 0-268 217-484 484-484s484 216 484 484c0 267-216 484-484 484z m0-875c-216 0-391 175-391 391 0 216 175 391 391 391 216 0 391-175 391-391 0-216-175-391-391-391z m82 204c0-46-37-82-82-82s-82 36-82 82 37 82 82 82 82-37 82-82z m-159 412l13-265c1-13 11-22 24-22h80c13 0 23 9 24 22l13 265c1 14-10 25-23 25h-107c-14 0-25-11-24-25z" horiz-adv-x="1000" />

<glyph glyph-name="exclamation-square" unicode="&#xe86a;" d="M875 694v-688c0-52-42-94-94-94h-687c-52 0-94 42-94 94v688c0 52 42 94 94 94h687c52 0 94-42 94-94z m-94-676v664a12 12 0 0 1-11 12h-664a12 12 0 0 1-12-12v-664a12 12 0 0 1 12-12h664a12 12 0 0 1 11 12z m-261 145c0-46-37-82-82-82s-82 36-82 82 36 82 82 82 82-37 82-82z m-159 412l13-265c1-13 11-22 23-22h81c12 0 23 9 23 22l13 265c1 14-10 25-23 25h-107c-13 0-24-11-23-25z" horiz-adv-x="875" />

<glyph glyph-name="exclamation-triangle" unicode="&#xe86b;" d="M486 450l13-219c0-12 11-22 23-22h81a23 23 0 0 1 23 22l13 219c1 14-10 25-23 25h-107c-13 0-24-11-23-25z m159-350c0-45-37-82-82-82s-82 37-82 82 36 82 82 82 82-37 82-82z m-1 703c-36 63-127 63-163 0l-468-812c-36-63 9-141 81-141h937c72 0 117 78 81 141l-468 812z m-540-842l448 778c5 8 16 8 21 0l448-778c5-8-1-17-10-17h-897c-9 0-15 9-10 17z" horiz-adv-x="1125" />

<glyph glyph-name="eye" unicode="&#xe86c;" d="M1112 398c-110 187-315 311-549 311-235 0-440-125-550-311a94 94 0 0 1 0-96c110-186 316-311 550-311 234 0 439 125 549 311a94 94 0 0 1 0 96z m-549-314c-201 0-376 107-469 266 86 146 241 249 422 264 19-20 31-47 31-76 0-61-49-110-109-110s-110 49-110 110l0 0c-20-38-31-80-31-125 0-147 119-266 266-266s265 119 265 266c0 60-20 116-54 161 108-46 199-125 257-224-93-159-268-266-468-266z" horiz-adv-x="1125" />

<glyph glyph-name="facebook" unicode="&#xe86d;" d="M875 739v-778c0-27-22-48-48-48h-223v338h113l17 132h-130v85c0 38 10 64 65 64h70v118c-12 2-54 6-102 6-101 0-170-62-170-175v-98h-114v-132h114v-339h-419c-26 0-48 22-48 49v778c0 27 22 49 48 49h779c26 0 48-22 48-49z" horiz-adv-x="875" />

<glyph glyph-name="file-archive" unicode="&#xe86e;" d="M723 659l-164 164a94 94 0 0 1-67 27h-398c-52 0-94-42-94-94v-812c0-52 42-94 94-94h562c52 0 94 42 94 94v648a94 94 0 0 1-27 67z m-223 90l149-149h-149v149z m156-805h-562v812h155v-31h63v31h94v-203c0-26 21-47 47-47h203v-562z m-280 719h-63v62h63v-62z m-63 0v-63h-62v63h62z m0-125v-63h-62v63h62z m63 0h-63v62h63v-62z m3-207a23 23 0 0 1-23 19h-43v63h-62v-63l-39-190c-13-63 36-122 101-122 64 0 113 59 100 122l-34 171z m-66-243c-35 0-63 24-63 53 0 29 28 53 63 53s63-24 63-53c0-29-28-53-63-53z m63 325h-63v62h63v-62z" horiz-adv-x="750" />

<glyph glyph-name="file-download" unicode="&#xe86f;" d="M422 389c0 13-11 23-24 23h-46c-13 0-24-10-24-23v-164h-95c-21 0-32-25-17-40l141-140c10-10 26-10 36 0l141 140c15 15 4 40-17 40h-95v164z m300 270l-163 164c-18 17-42 27-67 27h-398c-52 0-94-42-94-94v-812c0-52 42-94 94-94h562c52 0 94 42 94 94v648c0 25-10 49-28 67z m-222 90l149-149h-149v149z m156-805h-562v812h312v-203c0-26 21-47 47-47h203v-562z" horiz-adv-x="750" />

<glyph glyph-name="fire" unicode="&#xe870;" d="M422 803c0 47-61 65-86 26-186-288 55-445 55-541 0-44-35-79-78-79s-79 35-79 79v206c0 38-42 60-73 39-101-70-161-185-161-308 0-207 168-375 375-375s375 168 375 375c0 333-328 377-328 578z m-47-859c-155 0-281 126-281 281 0 56 17 126 47 172v-109c0-95 77-172 172-172s171 77 171 172c0 125-171 234-125 406 79-172 297-238 297-469 0-155-126-281-281-281z" horiz-adv-x="750" />

<glyph glyph-name="fire-alt" unicode="&#xe871;" d="M632 750c-41-38-77-77-110-117-53 73-119 148-194 217-192-178-328-410-328-550 0-248 196-450 438-450s437 202 437 450c0 104-101 319-243 450z m-194-806c-190 0-344 160-344 356 0 89 86 260 234 418 44-45 84-93 118-140l72-99 77 95c11 14 23 27 35 41 91-113 151-254 151-315 0-196-154-356-343-356z m174 431l-100-114s-157 200-169 214c-83-99-124-157-124-223 0-133 100-214 223-214 50 0 95 15 132 41 85 59 104 173 58 262-6 11-13 22-20 34z" horiz-adv-x="875" />

<glyph glyph-name="flame" unicode="&#xe872;" d="M375 850c-219-198-375-431-375-587 0-243 154-413 375-413s375 170 375 413c0 156-157 390-375 587z m0-906c-168 0-281 128-281 319 0 90 88 267 281 458 168-168 281-349 281-458 0-191-113-319-281-319z m88 438c-39 33-75 64-75 114 0 6-6 9-8 10-5 1-12 1-16-5-107-146 58-135 58-241 0-45-37-82-82-82-45 0-82 37-82 82v59a12 12 0 0 1-20 8c-13-12-50-52-50-117 0-95 84-172 187-172s188 77 188 172c0 87-51 130-100 172z" horiz-adv-x="750" />

<glyph glyph-name="flushed" unicode="&#xe873;" d="M484 834c-267 0-484-216-484-484s217-484 484-484 485 216 485 484-217 484-485 484z m0-875c-215 0-390 176-390 391s175 391 390 391 391-176 391-391-175-391-391-391z m188 610c-86 0-156-70-156-156s70-157 156-157 156 70 156 157-70 156-156 156z m0-250c-52 0-94 42-94 94s42 93 94 93 94-42 94-93-42-94-94-94z m0 140c-26 0-47-20-47-46s21-47 47-47 47 21 47 47-21 46-47 46z m-219-46c0 86-70 156-156 156s-156-70-156-156 70-157 156-157 156 70 156 157z m-156-94c-52 0-94 42-94 94s42 93 94 93 94-42 94-93-42-94-94-94z m0 140c-26 0-47-20-47-46s21-47 47-47 47 21 47 47-21 46-47 46z m312-281h-250c-25 0-46-21-46-47s21-47 46-47h250c26 0 47 22 47 47s-21 47-47 47z" horiz-adv-x="969" />

<glyph glyph-name="frown" unicode="&#xe874;" d="M484 834c-267 0-484-216-484-484s217-484 484-484 485 216 485 484-217 484-485 484z m0-875c-215 0-390 176-390 391s175 391 390 391 391-176 391-391-175-391-391-391z m-156 422c35 0 63 28 63 63s-28 62-63 62-62-28-62-62 28-63 62-63z m313 125c-35 0-63-28-63-62s28-63 63-63 62 28 62 63-28 62-62 62z m-157-250c-78 0-152-34-202-95-17-20-14-49 6-66 20-16 49-14 66 6 32 39 80 62 130 62s99-23 131-62c16-19 45-23 66-6 20 17 23 46 6 66-50 61-124 95-203 95z" horiz-adv-x="969" />

<glyph glyph-name="frown-open" unicode="&#xe875;" d="M484 834c-267 0-484-216-484-484s217-484 484-484 485 216 485 484-217 484-485 484z m0-875c-215 0-390 176-390 391s175 391 390 391 391-176 391-391-175-391-391-391z m-93 485c0 34-28 62-63 62s-62-28-62-62 28-63 62-63 63 28 63 63z m250 62c-35 0-63-28-63-62s28-63 63-63 62 28 62 63-28 62-62 62z m-157-218c-69 0-173-42-187-120-4-23 18-42 40-35 61 18 116 30 147 30s87-12 147-30c23-7 44 12 41 35-14 78-118 120-188 120z" horiz-adv-x="969" />

<glyph glyph-name="gift" unicode="&#xe876;" d="M906 569h-51c12 23 20 50 20 78 0 95-77 172-172 172-81 0-134-42-201-134-67 92-120 134-201 134-95 0-172-77-172-172 0-28 7-55 20-78h-55c-52 0-94-42-94-94v-250c0-17 14-31 31-31h32v-210c0-57 46-103 102-103h670c56 0 103 46 103 103v210h31c17 0 31 14 31 31v250c0 52-42 94-94 94z m-453-594h-288c-5 0-9 4-9 9v210h219v94h-281v187h359v-500z m-152 594c-44 0-78 35-78 78s34 78 78 78c43 0 73-15 164-150l4-6h-168z m238 6c91 135 121 150 164 150 43 0 78-35 78-78s-35-78-78-78h-168l4 6z m367-287h-281v-94h219v-210c0-5-4-9-9-9h-288v500h359v-187z" horiz-adv-x="1000" />

<glyph glyph-name="google-plus-g" unicode="&#xe877;" d="M754 404c4-19 6-38 6-63 0-214-144-366-360-366-207 0-375 168-375 375s168 375 375 375c101 0 186-37 251-98l-102-98c-27 27-76 58-149 58-128 0-232-106-232-237 0-131 104-237 232-237 148 0 204 107 213 162h-213v129h354z m362-13v109h-109v-109h-109v-109h109v-109h109v109h109v109h-109z" horiz-adv-x="1250" />

<glyph glyph-name="grimace" unicode="&#xe878;" d="M484 834c-267 0-484-216-484-484s217-484 484-484 485 216 485 484-217 484-485 484z m0-875c-215 0-390 176-390 391s175 391 390 391 391-176 391-391-175-391-391-391z m-156 422c35 0 63 28 63 63s-28 62-63 62-62-28-62-62 28-63 62-63z m313 0c34 0 62 28 62 63s-28 62-62 62-63-28-63-62 28-63 63-63z m31-31h-375c-52 0-94-42-94-94v-62c0-52 42-94 94-94h375c52 0 94 42 94 94v62c0 52-42 94-94 94z m-328-187h-47c-17 0-31 14-31 31v15h78v-46z m0 78h-78v15c0 17 14 32 31 32h47v-47z m125-78h-94v46h94v-46z m0 78h-94v47h94v-47z m125-78h-94v46h94v-46z m0 78h-94v47h94v-47z m109-47c0-17-14-31-31-31h-47v46h78v-15z m0 47h-78v47h47c17 0 31-15 31-32v-15z" horiz-adv-x="969" />

<glyph glyph-name="grin" unicode="&#xe879;" d="M484 834c-267 0-484-216-484-484s217-484 484-484 485 216 485 484-217 484-485 484z m0-875c-215 0-390 176-390 391s175 391 390 391 391-176 391-391-175-391-391-391z m207 296c-51-16-126-25-207-25s-155 9-206 25c-19 6-38-10-34-30 15-92 139-156 240-156s226 64 241 156c3 19-15 36-34 30z m-363 126c35 0 63 28 63 63s-28 62-63 62-62-28-62-62 28-63 62-63z m313 0c34 0 62 28 62 63s-28 62-62 62-63-28-63-62 28-63 63-63z" horiz-adv-x="969" />

<glyph glyph-name="grin-alt" unicode="&#xe87a;" d="M391 366c24 36 30 73 31 109-1 37-7 73-31 109-15 24-49 23-64 0-24-36-29-72-30-109 1-36 6-73 30-109 16-24 50-23 64 0z m250 0c24 36 30 73 31 109-1 37-7 73-31 109-15 24-49 23-64 0-24-36-29-72-30-109 1-36 6-73 30-109 16-24 50-23 64 0z m-157 468c-267 0-484-216-484-484s217-484 484-484 485 216 485 484-217 484-485 484z m0-875c-215 0-390 176-390 391s175 391 390 391 391-176 391-391-175-391-391-391z m207 296c-51-16-126-25-207-25s-155 9-206 25c-19 6-38-10-34-30 15-92 139-156 240-156s226 64 241 156c3 19-15 36-34 30z" horiz-adv-x="969" />

<glyph glyph-name="grin-beam" unicode="&#xe87b;" d="M484 834c-267 0-484-216-484-484s217-484 484-484 485 216 485 484-217 484-485 484z m0-875c-215 0-390 176-390 391s175 391 390 391 391-176 391-391-175-391-391-391z m207 296c-51-16-126-25-207-25s-155 9-206 25c-19 6-38-10-34-30 15-92 139-156 240-156s226 64 241 156c3 19-15 36-34 30z m-461 143c7-3 14 0 18 7l19 33c15 27 37 42 61 42s47-15 62-42l18-33c4-7 12-9 18-7 7 2 12 8 12 16-7 82-63 139-110 139s-103-57-109-139c-1-8 4-14 11-16z m312 0c7-3 15 0 19 7l18 33c15 27 38 42 62 42s46-15 61-42l19-33c4-7 12-9 18-7 7 2 12 8 11 16-6 82-63 139-109 139s-103-57-110-139c0-8 4-14 11-16z" horiz-adv-x="969" />

<glyph glyph-name="grin-beam-sweat" unicode="&#xe87c;" d="M859 538c58 0 105 51 105 114 0 49-62 148-91 190-7 11-21 11-27 0-29-42-91-141-91-190 0-63 47-114 104-114z m-375-469c102 0 226 64 241 156 4 19-15 36-34 30-51-16-126-26-207-26s-155 10-206 26c-19 6-38-10-34-30 15-92 139-156 240-156z m255 329c7 2 12 8 11 16-6 82-63 139-109 139s-103-57-110-139c0-8 4-14 11-16 7-3 15 0 19 7l18 33c15 27 38 42 62 42s46-15 61-42l19-33c4-7 12-9 18-7z m206 103c-48-31-90-25-91-25 13-40 21-82 21-126 0-215-175-391-391-391s-390 176-390 391 175 391 390 391c78 0 150-23 211-63 4 19 13 47 34 90-72 42-155 66-245 66-267 0-484-216-484-484s217-484 484-484 485 216 485 484c0 53-9 103-24 151z m-617-21c24 0 47-15 62-42l18-33c4-7 12-9 18-7 7 2 12 8 12 16-7 82-63 139-110 139s-103-57-109-139c-1-8 4-14 11-16 7-3 14 0 18 7l19 33c15 27 37 42 61 42z" horiz-adv-x="969" />

<glyph glyph-name="grin-hearts" unicode="&#xe87d;" d="M691 255c-51-16-126-25-207-25s-155 9-206 25c-19 6-38-10-34-30 15-92 139-156 240-156s226 64 241 156c3 19-15 36-34 30z m-299 96c9-3 18 3 21 11l38 137c11 40-15 80-57 87-36 6-71-19-81-55l-4-14-13 4c-36 9-75-8-88-43-15-39 7-82 47-92l137-35z m369 127c-13 35-52 52-88 43l-14-4-3 14c-10 36-45 61-82 55-41-7-67-47-56-87l38-137c2-8 12-14 21-11l137 35c40 11 62 53 47 92z m-277 356c-267 0-484-216-484-484s217-484 484-484 485 216 485 484-217 484-485 484z m0-875c-215 0-390 176-390 391s175 391 390 391 391-176 391-391-175-391-391-391z" horiz-adv-x="969" />

<glyph glyph-name="grin-squint" unicode="&#xe87e;" d="M484 834c-267 0-484-216-484-484s217-484 484-484 485 216 485 484-217 484-485 484z m0-875c-215 0-390 176-390 391s175 391 390 391 391-176 391-391-175-391-391-391z m207 296c-51-16-126-25-207-25s-155 9-206 25c-19 6-38-10-34-30 15-92 139-156 240-156s226 64 241 156c3 19-15 36-34 30z m-459 80c7-8 20-11 30-5l156 94c7 4 12 12 12 20s-5 16-12 20l-156 94c-10 6-22 3-30-5-7-9-7-22 0-30l66-79-66-79c-7-9-7-22 0-30z m475-5c10-6 23-3 30 5 7 9 7 21 0 30l-66 79 66 79c7 8 7 21 0 30-8 8-20 10-30 5l-157-94c-7-4-11-12-11-20s4-16 11-20l157-94z" horiz-adv-x="969" />

<glyph glyph-name="grin-squint-tears" unicode="&#xe87f;" d="M229 100c-51-7-164-27-197-60-43-43-42-113 1-157s114-44 157-2c33 33 53 147 60 198 2 12-9 23-21 21z m-81 81c-69 146-44 325 76 445 74 74 172 115 276 115 71 0 138-19 198-54 7 39 15 70 23 94-69 35-145 53-221 53-124 0-248-47-343-141-144-145-178-359-101-536 24 8 54 17 92 24z m688 367c88-150 69-346-60-474-74-74-172-115-276-115-60 0-117 14-169 39-7-38-15-68-24-92 62-27 127-40 193-40 124 0 248 47 343 141 152 153 182 382 88 564-24-8-55-16-95-23z m-65 52c51 7 164 27 197 60 43 43 42 113-1 157s-114 44-157 2c-33-33-53-147-60-197-2-13 9-24 21-22z m-365-211c-6 6-14 8-22 6l-177-44c-11-3-18-13-18-25 1-11 10-20 22-21l102-10 9-102c1-11 10-20 22-21h1c11 0 20 7 23 18l44 176c2 8 0 17-6 23z m78 49l176 44c12 3 19 13 18 24-1 12-10 21-21 22l-102 9-10 103c-1 11-10 20-21 21-11 0-22-7-25-18l-44-177c-2-8 1-16 6-22 10-10 22-6 23-6z m101-173c-57-57-116-103-164-128-18-9-19-34-3-46 76-54 209-12 281 60s114 205 59 281c-11 16-36 15-45-3-24-48-71-107-128-164z" horiz-adv-x="1000" />

<glyph glyph-name="grin-stars" unicode="&#xe880;" d="M484 834c-267 0-484-216-484-484s217-484 484-484 485 216 485 484-217 484-485 484z m0-875c-215 0-390 176-390 391s175 391 390 391 391-176 391-391-175-391-391-391z m207 296c-51-16-126-25-207-25s-155 9-206 25c-19 6-38-10-34-30 15-92 139-156 240-156s226 64 241 156c3 19-15 36-34 30z m-445 112c-2-12 10-21 21-15l61 32 61-32c11-6 24 3 22 15l-12 69 50 48c8 8 3 23-9 25l-68 10-30 62c-6 11-22 11-27 0l-31-62-68-10c-12-1-17-16-8-25l49-48-11-69z m507 142l-68 10-31 62c-5 11-21 11-27 0l-30-62-68-10c-12-1-18-16-9-25l50-48-12-69c-2-12 11-21 22-15l61 32 61-32c11-6 23 3 21 15l-11 69 49 48c9 9 4 23-8 25z" horiz-adv-x="969" />
</font>
</defs>
</svg>
